<svg id="Kassenschnittstelle" xmlns="http://www.w3.org/2000/svg" viewBox="0 0 444.16 447.69"><defs><style>.cls-1{fill:#969696;}</style></defs><title>anpassungsfaehigkeit</title><path class="cls-1" d="M473.16,646.82a20,20,0,0,1-7.14-1.31l-6.93-2.64a20.36,20.36,0,0,1-12.23-24.69l5.84-19.73a110.73,110.73,0,0,1-25.87-25.26l-18.56,6.69a20.36,20.36,0,0,1-25.36-10.77l-3-6.76a20.35,20.35,0,0,1,8.82-26.1l18.09-9.83a110.66,110.66,0,0,1-.45-36.15l-17.85-8.39a20.36,20.36,0,0,1-10.32-25.55l2.64-6.93a20.35,20.35,0,0,1,24.69-12.23L425.23,443a110.74,110.74,0,0,1,25.26-25.87l-6.69-18.56a20.36,20.36,0,0,1,10.77-25.36l6.76-3a20.36,20.36,0,0,1,26.1,8.81l9.83,18.09a110.67,110.67,0,0,1,36.15-.45l8.39-17.85a20.36,20.36,0,0,1,25.55-10.32l6.93,2.64A20.35,20.35,0,0,1,586.5,395.8l-5.84,19.73a110.73,110.73,0,0,1,25.87,25.26l18.56-6.69a20.35,20.35,0,0,1,25.36,10.77l3,6.76a20.35,20.35,0,0,1-8.82,26.1l-18.09,9.83a110.64,110.64,0,0,1,.45,36.15l17.85,8.39a20.36,20.36,0,0,1,10.32,25.55l-2.64,6.93a20.35,20.35,0,0,1-24.69,12.23L608.14,571a110.74,110.74,0,0,1-25.26,25.87l6.69,18.56a20.36,20.36,0,0,1-10.77,25.36l-6.76,3a20.36,20.36,0,0,1-26.1-8.81l-9.83-18.09a110.62,110.62,0,0,1-36.15.45l-8.39,17.85A20.37,20.37,0,0,1,473.16,646.82Zm-45.87-81.88a6.77,6.77,0,0,1,5.48,2.79A102.77,102.77,0,0,0,458,592.37a6.71,6.71,0,0,1,2.66,7.44l-6.11,20.63a12.32,12.32,0,0,0,7.4,14.94l6.93,2.64a12.32,12.32,0,0,0,15.46-6.25l8.8-18.73a6.75,6.75,0,0,1,7.16-3.76,102.72,102.72,0,0,0,35.26-.43,6.7,6.7,0,0,1,7.14,3.39L553,631.16a12.32,12.32,0,0,0,15.8,5.34l6.76-3A12.32,12.32,0,0,0,582,618.11l-7-19.47a6.75,6.75,0,0,1,2.4-7.72,102.79,102.79,0,0,0,24.64-25.23,6.71,6.71,0,0,1,7.44-2.66l20.63,6.11a12.32,12.32,0,0,0,14.94-7.4l2.64-6.93a12.32,12.32,0,0,0-6.25-15.46h0l-18.73-8.8a6.75,6.75,0,0,1-3.76-7.16,102.71,102.71,0,0,0-.43-35.26,6.7,6.7,0,0,1,3.39-7.14l18.91-10.27a12.32,12.32,0,0,0,5.34-15.8l-3-6.76a12.32,12.32,0,0,0-15.35-6.52l-19.47,7a6.75,6.75,0,0,1-7.72-2.4,102.78,102.78,0,0,0-25.23-24.64,6.7,6.7,0,0,1-2.66-7.44l6.11-20.63a12.32,12.32,0,0,0-7.4-14.94l-6.93-2.64A12.32,12.32,0,0,0,549,382.2l-8.8,18.73a6.75,6.75,0,0,1-7.16,3.76,102.7,102.7,0,0,0-35.26.43,6.71,6.71,0,0,1-7.14-3.38L480.4,382.82a12.32,12.32,0,0,0-15.8-5.33l-6.76,3a12.32,12.32,0,0,0-6.52,15.35l7,19.47a6.75,6.75,0,0,1-2.4,7.72,102.79,102.79,0,0,0-24.64,25.23,6.71,6.71,0,0,1-7.44,2.66l-20.63-6.11a12.32,12.32,0,0,0-14.94,7.4l-2.64,6.93a12.32,12.32,0,0,0,6.25,15.46l18.73,8.8a6.75,6.75,0,0,1,3.76,7.16,102.72,102.72,0,0,0,.43,35.26,6.7,6.7,0,0,1-3.38,7.14l-18.91,10.27a12.32,12.32,0,0,0-5.34,15.8l3,6.76a12.32,12.32,0,0,0,15.35,6.52l19.47-7A6.61,6.61,0,0,1,427.28,564.94Z" transform="translate(-376.85 -199.13)"/><path class="cls-1" d="M516.62,561.33a54.34,54.34,0,1,1,50.85-35A54.08,54.08,0,0,1,516.62,561.33Zm0-100.71a46.4,46.4,0,1,0,16.5,3.05A46.22,46.22,0,0,0,516.66,460.62Z" transform="translate(-376.85 -199.13)"/><path class="cls-1" d="M705.17,357.59a42.66,42.66,0,1,1,42.67-43.9h0a42.66,42.66,0,0,1-41.4,43.88Zm.06-77.32-1,0a34.66,34.66,0,1,0,35.65,33.63h0a34.66,34.66,0,0,0-34.62-33.65Z" transform="translate(-376.85 -199.13)"/><path class="cls-1" d="M708.81,430.74h-.14l-7.42-.05a20.36,20.36,0,0,1-20.08-18.87l-1.08-15.69a84.66,84.66,0,0,1-14.53-6L653.29,400.5a20.35,20.35,0,0,1-27.52-1.23L620.56,394a20.36,20.36,0,0,1-.85-27.54L630,354.59a84.71,84.71,0,0,1-6-14.53l-16-1.33A20.36,20.36,0,0,1,589.4,318.4l.05-7.41a20.36,20.36,0,0,1,18.87-20.08L624,289.82a84.7,84.7,0,0,1,6-14.53L619.63,263a20.35,20.35,0,0,1,1.23-27.53l5.28-5.21a20.35,20.35,0,0,1,27.54-.85l11.86,10.33a84.62,84.62,0,0,1,14.53-6l1.33-16a20.36,20.36,0,0,1,20.2-18.59h.14l7.41.05A20.36,20.36,0,0,1,729.23,218l1.08,15.69a84.67,84.67,0,0,1,14.53,6l12.27-10.39a20.35,20.35,0,0,1,27.53,1.23l5.21,5.28a20.35,20.35,0,0,1,.85,27.54l-10.33,11.86a84.67,84.67,0,0,1,6,14.53l16,1.33A20.36,20.36,0,0,1,821,311.47l-.05,7.42A20.36,20.36,0,0,1,802.09,339L786.4,340a84.7,84.7,0,0,1-6,14.53l10.39,12.27a20.36,20.36,0,0,1-1.23,27.53l-5.28,5.21a20.36,20.36,0,0,1-27.54.85L744.86,390.1a84.7,84.7,0,0,1-14.53,6l-1.33,16A20.36,20.36,0,0,1,708.81,430.74Zm-43.42-48.9a6.78,6.78,0,0,1,3.23.83,76.62,76.62,0,0,0,14.59,6,6.76,6.76,0,0,1,4.81,6l1.14,16.58a12.32,12.32,0,0,0,12.15,11.42l7.42.05A12.31,12.31,0,0,0,721,411.49l1.4-16.9a6.68,6.68,0,0,1,4.8-5.88,76.6,76.6,0,0,0,14.58-6.05,6.76,6.76,0,0,1,7.63.82L762,394.4a12.32,12.32,0,0,0,16.67-.52l5.28-5.21a12.32,12.32,0,0,0,.75-16.66l-11-12.94a6.69,6.69,0,0,1-.76-7.55,76.64,76.64,0,0,0,6-14.59,6.76,6.76,0,0,1,6-4.81L801.54,331A12.32,12.32,0,0,0,813,318.83l.05-7.42a12.32,12.32,0,0,0-11.25-12.31l-16.9-1.4a6.69,6.69,0,0,1-5.88-4.8,76.61,76.61,0,0,0-6.05-14.59,6.76,6.76,0,0,1,.82-7.62l10.92-12.54a12.32,12.32,0,0,0-.52-16.67l-5.21-5.28a12.32,12.32,0,0,0-16.66-.75l-12.95,11a6.69,6.69,0,0,1-7.55.77,76.63,76.63,0,0,0-14.59-6,6.76,6.76,0,0,1-4.81-6l-1.14-16.58a12.32,12.32,0,0,0-12.15-11.42l-7.41-.05h-.08a12.32,12.32,0,0,0-12.22,11.25l-1.4,16.9a6.69,6.69,0,0,1-4.8,5.88,76.61,76.61,0,0,0-14.59,6.05,6.76,6.76,0,0,1-7.62-.82l-12.54-10.92a12.32,12.32,0,0,0-16.67.52l-5.28,5.21a12.32,12.32,0,0,0-.75,16.66l11,12.95a6.69,6.69,0,0,1,.77,7.55,76.67,76.67,0,0,0-6,14.59,6.76,6.76,0,0,1-6,4.81l-16.58,1.14A12.32,12.32,0,0,0,597.45,311l-.05,7.41a12.32,12.32,0,0,0,11.25,12.31l16.9,1.4a6.68,6.68,0,0,1,5.88,4.8,76.63,76.63,0,0,0,6.05,14.58,6.76,6.76,0,0,1-.83,7.63L625.74,371.7a12.32,12.32,0,0,0,.52,16.67l5.21,5.28a12.32,12.32,0,0,0,16.66.75l12.95-11A6.67,6.67,0,0,1,665.38,381.84Z" transform="translate(-376.85 -199.13)"/></svg>