<svg id="fairer_Preis" data-name="fairer Preis" xmlns="http://www.w3.org/2000/svg" viewBox="0 0 442.32 456.03"><defs><style>.cls-1{fill:#969696;}</style></defs><title>ansprechpartner</title><path class="cls-1" d="M673,416.91a52,52,0,1,0,52-52A52,52,0,0,0,673,416.91Zm95.91,0a44,44,0,1,1-44-44A44,44,0,0,1,768.9,416.91Z" transform="translate(-370.48 -165.12)"/><path class="cls-1" d="M798.51,492l-43.71-9.42a11,11,0,0,0-10.14,3,4,4,0,0,0-.45.54l-19.26,27.62-19.26-27.62a4,4,0,0,0-.45-.54,11,11,0,0,0-10.14-3L651.38,492a18.2,18.2,0,0,0-14.29,17.7V617.16a4,4,0,0,0,8,0V509.73a10.16,10.16,0,0,1,8-9.88l43.71-9.42a3,3,0,0,1,2.59.64l22.3,32a4,4,0,0,0,6.56,0l22.3-32a3,3,0,0,1,2.59-.64l43.71,9.42a10.16,10.16,0,0,1,8,9.88V617.16a4,4,0,0,0,8,0V509.73A18.2,18.2,0,0,0,798.51,492Z" transform="translate(-370.48 -165.12)"/><path class="cls-1" d="M458.34,468.86a52,52,0,1,0-52-52A52,52,0,0,0,458.34,468.86Zm0-95.91a44,44,0,1,1-44,44A44,44,0,0,1,458.34,372.95Z" transform="translate(-370.48 -165.12)"/><path class="cls-1" d="M531.91,492l-43.71-9.42a11,11,0,0,0-10.14,3,4,4,0,0,0-.45.54l-19.26,27.62-19.26-27.62a4,4,0,0,0-.45-.54,11,11,0,0,0-10.14-3L384.77,492a18.2,18.2,0,0,0-14.29,17.7V617.16a4,4,0,0,0,8,0V509.73a10.16,10.16,0,0,1,8-9.88l43.71-9.42a3,3,0,0,1,2.59.64l22.3,32a4,4,0,0,0,6.56,0l22.3-32a3,3,0,0,1,2.59-.64l43.71,9.42a10.16,10.16,0,0,1,8,9.88V617.16a4,4,0,1,0,8,0V509.73A18.2,18.2,0,0,0,531.91,492Z" transform="translate(-370.48 -165.12)"/><path class="cls-1" d="M693.61,295l34.23,47.91a4,4,0,0,0,7.25-2.33V179.16a14.05,14.05,0,0,0-14-14H549.18a14.05,14.05,0,0,0-14,14v35.7H465a10.71,10.71,0,0,0-10.7,10.7v115a4,4,0,0,0,6.32,3.26L481.5,329H592.95a10.71,10.71,0,0,0,10.7-10.7V295ZM543.14,179.16a6,6,0,0,1,6-6H721.06a6,6,0,0,1,6,6V328.11l-28.17-39.43a4,4,0,0,0-3.25-1.67h-149c-.92-.28-3.49-2.73-3.49-6ZM595.65,318.3a2.7,2.7,0,0,1-2.7,2.7H480.22a4,4,0,0,0-2.32.74l-15.56,11.08V225.56a2.7,2.7,0,0,1,2.7-2.7h70.1V281c0,7.78,6.23,14,11.39,14h49.12Z" transform="translate(-370.48 -165.12)"/></svg>