<svg id="Teilzahlung" xmlns="http://www.w3.org/2000/svg" viewBox="0 0 509.01 436.62"><defs><style>.cls-1{fill:#494949;}</style></defs><title>anzahlungsmodul</title><path class="cls-1" d="M839,280.13a4,4,0,0,0-4,4v89.31a4,4,0,0,0,4,4h89.31a4,4,0,0,0,4-4A93.41,93.41,0,0,0,839,280.13Zm4,89.31V288.22a85.43,85.43,0,0,1,81.21,81.22Z" transform="translate(-423.26 -210.41)"/><path class="cls-1" d="M553.89,282.61a4,4,0,0,0,2.83-1.17l61.37-61.37,61.37,61.37a4,4,0,1,0,5.66-5.66l-64.2-64.2a4,4,0,0,0-5.66,0l-64.2,64.2a4,4,0,0,0,2.83,6.83Z" transform="translate(-423.26 -210.41)"/><path class="cls-1" d="M898.21,399.5H812.9V314.19a4,4,0,0,0-4-4A93.46,93.46,0,0,0,716.71,389H622.08V246.1a4,4,0,1,0-8,0V389H446.24a23,23,0,0,0-23,23v212a23,23,0,0,0,23,23H789.93a23,23,0,0,0,23-23V496.72a93.42,93.42,0,0,0,89.31-93.22A4,4,0,0,0,898.21,399.5Zm-452-2.45H715.82c-.15,2.13-.23,4.28-.23,6.45a92.73,92.73,0,0,0,10.88,43.69H431.26V412A15,15,0,0,1,446.24,397Zm324.88,91.76H431.26V455.19h300A93.9,93.9,0,0,0,771.12,488.81ZM789.93,639H446.24a15,15,0,0,1-15-15V496.81H804.9V624.06A15,15,0,0,1,789.93,639Zm19-150.23a85.31,85.31,0,0,1-4-170.52V403.5a4,4,0,0,0,4,4h85.21A85.41,85.41,0,0,1,808.9,488.81Z" transform="translate(-423.26 -210.41)"/><path class="cls-1" d="M622.61,591.59H466.45a4,4,0,0,0,0,8H622.61a4,4,0,0,0,0-8Z" transform="translate(-423.26 -210.41)"/><path class="cls-1" d="M772.71,591.59H723.58a4,4,0,0,0,0,8h49.13a4,4,0,0,0,0-8Z" transform="translate(-423.26 -210.41)"/></svg>