<?xml version="1.0" encoding="utf-8"?>
<!-- Generator: Adobe Illustrator 19.2.1, SVG Export Plug-In . SVG Version: 6.00 Build 0)  -->
<svg version="1.1" id="Layer_1" xmlns="http://www.w3.org/2000/svg" xmlns:xlink="http://www.w3.org/1999/xlink" x="0px" y="0px"
	 viewBox="0 0 500 500" style="enable-background:new 0 0 500 500;" xml:space="preserve">
<style type="text/css">
	.st0{fill:#121210;}
</style>
<g>
	<path class="st0" d="M250.4,302.3h-20.6c-5.7,0-10.4,4.7-10.4,10.4v2.8c0,5.7,4.7,10.4,10.4,10.4h20.6c5.7,0,10.4-4.7,10.4-10.4
		v-2.8C260.9,306.9,256.2,302.3,250.4,302.3z M253.6,315.5c0,1.8-1.5,3.3-3.3,3.3h-20.6c-1.8,0-3.3-1.5-3.3-3.3v-2.8
		c0-1.8,1.5-3.3,3.3-3.3h20.6c1.8,0,3.3,1.5,3.3,3.3V315.5z"/>
	<path class="st0" d="M195.5,301.6l-18.4-1c-0.2,0-0.4,0-0.6,0l0,0c-5.7,0-10.3,4.4-10.3,9.8v4c0,5.2,4.3,9.5,9.7,9.8l18.4,1
		c0.2,0,0.4,0,0.6,0c5.7,0,10.3-4.4,10.3-9.8v-4C205.3,306.2,201,301.9,195.5,301.6z M198.2,315.4c0,1.5-1.5,2.7-3.2,2.7
		c-0.1,0-0.2,0-0.3,0l-18.4-1c-1.7-0.1-3-1.3-3-2.7v-4c0-1.5,1.5-2.7,3.2-2.7c0.1,0,0.2,0,0.3,0l18.4,1c1.7,0.1,3,1.3,3,2.7V315.4z"
		/>
	<path class="st0" d="M303.6,300.5c-0.2,0-0.4,0-0.6,0l-18.4,1c-5.5,0.3-9.7,4.6-9.7,9.8v4c0,5.4,4.7,9.8,10.3,9.8
		c0.2,0,0.4,0,0.6,0l18.4-1c5.5-0.3,9.7-4.6,9.7-9.8v-4C314,304.9,309.3,300.5,303.6,300.5z M306.9,314.4c0,1.4-1.3,2.6-3,2.7
		l-18.4,1c-0.1,0-0.2,0-0.3,0c-1.7,0-3.2-1.2-3.2-2.7v-4c0-1.4,1.3-2.6,3-2.7l18.4-1c0.1,0,0.2,0,0.3,0c1.7,0,3.2,1.2,3.2,2.7V314.4
		z"/>
	<path class="st0" d="M250.4,335h-20.6c-5.7,0-10.4,4.7-10.4,10.4v2.8c0,5.7,4.7,10.4,10.4,10.4h20.6c5.7,0,10.4-4.7,10.4-10.4v-2.8
		C260.9,339.7,256.2,335,250.4,335z M253.6,348.3c0,1.8-1.5,3.3-3.3,3.3h-20.6c-1.8,0-3.3-1.5-3.3-3.3v-2.8c0-1.8,1.5-3.3,3.3-3.3
		h20.6c1.8,0,3.3,1.5,3.3,3.3V348.3z"/>
	<path class="st0" d="M195.5,334.3l-18.4-1c-0.2,0-0.4,0-0.6,0l0,0c-5.7,0-10.3,4.4-10.3,9.8v4c0,5.2,4.3,9.5,9.7,9.8l18.4,1
		c0.2,0,0.4,0,0.6,0c5.7,0,10.3-4.4,10.3-9.8v-4C205.3,338.9,201,334.7,195.5,334.3z M198.2,348.1c0,1.5-1.5,2.7-3.2,2.7
		c-0.1,0-0.2,0-0.3,0l-18.4-1c-1.7-0.1-3-1.3-3-2.7v-4c0-1.5,1.5-2.7,3.2-2.7c0.1,0,0.2,0,0.3,0l18.4,1c1.7,0.1,3,1.3,3,2.7V348.1z"
		/>
	<path class="st0" d="M303.6,333.3c-0.2,0-0.4,0-0.6,0l-18.4,1c-5.5,0.3-9.7,4.6-9.7,9.8v4c0,5.4,4.7,9.8,10.3,9.8
		c0.2,0,0.4,0,0.6,0l18.4-1c5.5-0.3,9.7-4.6,9.7-9.8v-4C314,337.7,309.3,333.3,303.6,333.3z M306.9,347.1c0,1.4-1.3,2.6-3,2.7
		l-18.4,1c-0.1,0-0.2,0-0.3,0c-1.7,0-3.2-1.2-3.2-2.7v-4c0-1.4,1.3-2.6,3-2.7l18.4-1c0.1,0,0.2,0,0.3,0c1.7,0,3.2,1.2,3.2,2.7V347.1
		z"/>
	<path class="st0" d="M250.4,367.8h-20.6c-5.7,0-10.4,4.7-10.4,10.4v2.8c0,5.7,4.7,10.4,10.4,10.4h20.6c5.7,0,10.4-4.7,10.4-10.4
		v-2.8C260.9,372.5,256.2,367.8,250.4,367.8z M253.6,381c0,1.8-1.5,3.3-3.3,3.3h-20.6c-1.8,0-3.3-1.5-3.3-3.3v-2.8
		c0-1.8,1.5-3.3,3.3-3.3h20.6c1.8,0,3.3,1.5,3.3,3.3V381z"/>
	<path class="st0" d="M195.5,367.1l-18.4-1c-0.2,0-0.4,0-0.6,0l0,0c-5.7,0-10.3,4.4-10.3,9.8v4c0,5.2,4.3,9.5,9.7,9.8l18.4,1
		c0.2,0,0.4,0,0.6,0c5.7,0,10.3-4.4,10.3-9.8v-4C205.3,371.7,201,367.5,195.5,367.1z M198.2,380.9c0,1.5-1.5,2.7-3.2,2.7
		c-0.1,0-0.2,0-0.3,0l-18.4-1c-1.7-0.1-3-1.3-3-2.7v-4c0-1.5,1.5-2.7,3.2-2.7c0.1,0,0.2,0,0.3,0l18.4,1c1.7,0.1,3,1.3,3,2.7V380.9z"
		/>
	<path class="st0" d="M303.6,366.1c-0.2,0-0.4,0-0.6,0l-18.4,1c-5.5,0.3-9.7,4.6-9.7,9.8v4c0,5.4,4.7,9.8,10.3,9.8
		c0.2,0,0.4,0,0.6,0l18.4-1c5.5-0.3,9.7-4.6,9.7-9.8v-4C314,370.4,309.3,366.1,303.6,366.1z M306.9,379.9c0,1.4-1.3,2.6-3,2.7
		l-18.4,1c-0.1,0-0.2,0-0.3,0c-1.7,0-3.2-1.2-3.2-2.7v-4c0-1.4,1.3-2.6,3-2.7l18.4-1c0.1,0,0.2,0,0.3,0c1.7,0,3.2,1.2,3.2,2.7V379.9
		z"/>
	<path class="st0" d="M250.4,400.5h-20.6c-5.7,0-10.4,4.7-10.4,10.4v2.8c0,5.7,4.7,10.4,10.4,10.4h20.6c5.7,0,10.4-4.7,10.4-10.4
		v-2.8C260.9,405.2,256.2,400.5,250.4,400.5z M253.6,413.8c0,1.8-1.5,3.3-3.3,3.3h-20.6c-1.8,0-3.3-1.5-3.3-3.3V411
		c0-1.8,1.5-3.3,3.3-3.3h20.6c1.8,0,3.3,1.5,3.3,3.3V413.8z"/>
	<path class="st0" d="M195.5,399.9l-18.4-1c-0.2,0-0.4,0-0.6,0l0,0c-5.7,0-10.3,4.4-10.3,9.8v4c0,5.2,4.3,9.5,9.7,9.8l18.4,1
		c0.2,0,0.4,0,0.6,0c5.7,0,10.3-4.4,10.3-9.8v-4C205.3,404.5,201,400.2,195.5,399.9z M198.2,413.7c0,1.5-1.5,2.7-3.2,2.7
		c-0.1,0-0.2,0-0.3,0l-18.4-1c-1.7-0.1-3-1.3-3-2.7v-4c0-1.5,1.5-2.7,3.2-2.7c0.1,0,0.2,0,0.3,0l18.4,1c1.7,0.1,3,1.3,3,2.7V413.7z"
		/>
	<path class="st0" d="M303.6,398.8c-0.2,0-0.4,0-0.6,0l-18.4,1c-5.5,0.3-9.7,4.6-9.7,9.8v4c0,5.4,4.7,9.8,10.3,9.8
		c0.2,0,0.4,0,0.6,0l18.4-1c5.5-0.3,9.7-4.6,9.7-9.8v-4C314,403.2,309.3,398.8,303.6,398.8z M306.9,412.7c0,1.4-1.3,2.6-3,2.7
		l-18.4,1c-0.1,0-0.2,0-0.3,0c-1.7,0-3.2-1.2-3.2-2.7v-4c0-1.4,1.3-2.6,3-2.7l18.4-1c0.1,0,0.2,0,0.3,0c1.7,0,3.2,1.2,3.2,2.7V412.7
		z"/>
	<path class="st0" d="M250.4,433.3h-20.6c-5.7,0-10.4,4.7-10.4,10.4v2.8c0,5.7,4.7,10.4,10.4,10.4h20.6c5.7,0,10.4-4.7,10.4-10.4
		v-2.8C260.9,438,256.2,433.3,250.4,433.3z M253.6,446.5c0,1.8-1.5,3.3-3.3,3.3h-20.6c-1.8,0-3.3-1.5-3.3-3.3v-2.8
		c0-1.8,1.5-3.3,3.3-3.3h20.6c1.8,0,3.3,1.5,3.3,3.3V446.5z"/>
	<path class="st0" d="M195.5,432.6l-18.4-1c-0.2,0-0.4,0-0.6,0l0,0c-5.7,0-10.3,4.4-10.3,9.8v4c0,5.2,4.3,9.5,9.7,9.8l18.4,1
		c0.2,0,0.4,0,0.6,0c5.7,0,10.3-4.4,10.3-9.8v-4C205.3,437.2,201,432.9,195.5,432.6z M198.2,446.4c0,1.5-1.5,2.7-3.2,2.7
		c-0.1,0-0.2,0-0.3,0l-18.4-1c-1.7-0.1-3-1.3-3-2.7v-4c0-1.5,1.5-2.7,3.2-2.7c0.1,0,0.2,0,0.3,0l18.4,1c1.7,0.1,3,1.3,3,2.7V446.4z"
		/>
	<path class="st0" d="M303.6,431.6c-0.2,0-0.4,0-0.6,0l-18.4,1c-5.5,0.3-9.7,4.6-9.7,9.8v4c0,5.4,4.7,9.8,10.3,9.8
		c0.2,0,0.4,0,0.6,0l18.4-1c5.5-0.3,9.7-4.6,9.7-9.8v-4C314,436,309.3,431.6,303.6,431.6z M306.9,445.4c0,1.4-1.3,2.6-3,2.7l-18.4,1
		c-0.1,0-0.2,0-0.3,0c-1.7,0-3.2-1.2-3.2-2.7v-4c0-1.4,1.3-2.6,3-2.7l18.4-1c0.1,0,0.2,0,0.3,0c1.7,0,3.2,1.2,3.2,2.7V445.4z"/>
	<path class="st0" d="M375.1,147.9c-0.3-7.3-10-13.8-12.3-15.2l-10.9-8c-0.9-15.4-1.9-27.7-2.6-35.8c-0.9-9.6-8.4-17.2-18.4-18.6
		c-19.6-2.6-70.7-5.1-95.9-5.1c-25.7,0-68.4,2.5-87.9,5.1c-9.9,1.3-17.5,9-18.4,18.6c-2.5,27.4-7.8,100.3-2.9,184.9
		c5,86,14.2,171.2,17.9,203.8c1.1,9.6,8.8,17,18.7,18.2c16.8,2,45.9,4.3,72.5,4.3c28.4,0,65.7-2.5,80.5-4.3
		c9.9-1.1,17.6-8.6,18.7-18.2c0.3-2.6,0.6-5.6,1-8.8l7.4-1.8l2.5-0.8l0.2-0.1c7.7-2.7,13.2-9.5,14.1-17.3
		c4.6-43.3,11-108.9,14.8-175C376.4,233.3,376.8,190.9,375.1,147.9z M317.1,76c0.8,1.1,2.4,3.7,4,7.9c1.9,5.2,4.2,14,4.6,27H152.4
		c0.3-13,2.6-21.8,4.6-27c1.7-4.3,3.2-6.9,4.1-8c21.6-2,53.3-3.7,74-3.7C255.6,72.3,293.6,73.9,317.1,76z M159,255.9l-0.8-13.3
		c-1.9-37.2-3.2-60.8-4.1-76.7c1.3-5.7,6.3-10,12.7-10.6c17.2-1.7,49.1-4.4,68.2-4.4c18.6,0,57,2.6,76.3,4.4
		c6.3,0.6,11.4,5,12.7,10.6c-0.9,15.9-2.2,39.5-4.1,76.8l-0.8,13.2H159z M311.9,148.1c-19.4-1.8-58.1-4.4-76.9-4.4
		c-18.5,0-47.7,2.4-68.9,4.4c-4.9,0.4-9.3,2.5-12.6,5.6c-1-19.1-1.1-22.5-1.1-35.5h173.4c0,13-0.1,16.4-1.1,35.5
		C321.2,150.6,316.9,148.6,311.9,148.1z M192.4,263l13.7,17c-13.9-0.8-25.7-2-34.2-3c-7-0.9-12.3-6.3-12.5-13l-0.1-0.9H192.4z
		 M201.6,263h64l13.1,16.3c-13.2,0.9-28.9,1.5-43.8,1.5c-7,0-13.7-0.2-20.1-0.3l0.4-0.3L201.6,263z M287.6,278.7L274.9,263h43.7
		l-0.1,1c-0.3,6.6-5.6,12.1-12.5,13C301.7,277.4,295.2,278.1,287.6,278.7z M169.2,489.3l5.4-8.1c1-1.5,2.8-2.4,4.6-2.4h120.6
		c1.8,0,3.6,0.9,4.6,2.3l4.8,8.1c-17,1.7-49.1,3.7-74.2,3.7C211.6,492.9,186.2,491,169.2,489.3z M327.1,476.8
		c-0.6,5.5-4.7,10-10.2,11.5l-6.4-10.8l-0.1-0.2c-2.3-3.5-6.3-5.7-10.6-5.7H179.2c-4.3,0-8.3,2.1-10.5,5.6l-7.4,11
		c-5.6-1.5-9.7-5.9-10.3-11.5c-3.7-32.5-12.9-117.5-17.9-203.3c-4.9-84.1,0.3-156.6,2.9-183.9c0.6-6.3,5.6-11.2,12.2-12.2
		c1.3-0.2,2.7-0.3,4.2-0.5c-3.2,6.5-7,18.4-7,37.7c0,18.8,7.2,149.7,7.2,149.7c0.4,10.1,8.3,18.4,18.8,19.7
		c14.1,1.8,36.6,3.9,63.8,3.9c28.3,0,59.1-2.3,71.9-3.9c10.4-1.3,18.4-9.7,18.8-19.7c0,0,7.2-131,7.2-149.8c0-19.2-3.8-31.1-7-37.7
		c1.5,0.2,2.9,0.3,4.2,0.5c6.6,0.9,11.6,5.9,12.2,12.2c2.5,27.2,7.7,99.8,2.9,183.9C340,359.2,330.9,444.2,327.1,476.8z M367,273.4
		c-3.8,65.9-10.1,131.4-14.7,174.6c-0.5,5-4.2,9.5-9.2,11.3l-2.2,0.7l-4.8,1.2c4.3-39.7,11.7-113.2,16.1-187.3
		c3.1-54.4,2.1-104.1,0.3-139.8l6.2,4.6l0.3,0.2c3.7,2.3,8.9,6.9,9,9.5C369.7,190.9,369.3,233.1,367,273.4z"/>
</g>
</svg>
