<?xml version="1.0" encoding="utf-8"?>
<!-- Generator: Adobe Illustrator 19.2.1, SVG Export Plug-In . SVG Version: 6.00 Build 0)  -->
<svg version="1.1" id="Layer_1" xmlns="http://www.w3.org/2000/svg" xmlns:xlink="http://www.w3.org/1999/xlink" x="0px" y="0px"
	 viewBox="0 0 500 500" style="enable-background:new 0 0 500 500;" xml:space="preserve">
<style type="text/css">
	.st0{fill:#121210;}
</style>
<g>
	<path class="st0" d="M234.9,297.3h-21.1c-5.9,0-10.7,4.8-10.7,10.7v2.9c0,5.9,4.8,10.7,10.7,10.7h21.1c5.9,0,10.7-4.8,10.7-10.7
		V308C245.6,302.1,240.8,297.3,234.9,297.3z M238.2,310.9c0,1.9-1.5,3.4-3.4,3.4h-21.1c-1.9,0-3.4-1.5-3.4-3.4V308
		c0-1.9,1.5-3.4,3.4-3.4h21.1c1.9,0,3.4,1.5,3.4,3.4V310.9z"/>
	<path class="st0" d="M219.9,268.9h8.9c5.9,0,10.7-4.8,10.7-10.7v-2.9c0-5.9-4.8-10.7-10.7-10.7h-8.9c-5.9,0-10.7,4.8-10.7,10.7v2.9
		C209.2,264.1,214,268.9,219.9,268.9z M216.5,255.3c0-1.9,1.5-3.4,3.4-3.4h8.9c1.9,0,3.4,1.5,3.4,3.4v2.9c0,1.9-1.5,3.4-3.4,3.4
		h-8.9c-1.9,0-3.4-1.5-3.4-3.4V255.3z"/>
	<path class="st0" d="M178.7,296.6l-18.8-1.1c-0.2,0-0.4,0-0.6,0c0,0,0,0,0,0c-5.9,0-10.6,4.5-10.6,10.1v4.1c0,5.3,4.4,9.7,10,10.1
		l18.8,1.1c0.2,0,0.4,0,0.6,0c5.9,0,10.6-4.5,10.6-10.1v-4.1C188.7,301.4,184.3,297,178.7,296.6z M181.4,310.8
		c0,1.5-1.5,2.7-3.3,2.7c-0.1,0-0.2,0-0.2,0l-18.8-1.1c-1.7-0.1-3.1-1.3-3.1-2.7v-4.1c0-1.5,1.5-2.7,3.3-2.7c0.1,0,0.2,0,0.2,0
		l18.8,1.1c1.7,0.1,3.1,1.3,3.1,2.7V310.8z"/>
	<path class="st0" d="M289.4,295.5c-0.2,0-0.4,0-0.6,0l-18.8,1.1c-5.6,0.3-10,4.7-10,10.1v4.1c0,5.6,4.8,10.1,10.6,10.1
		c0.2,0,0.4,0,0.6,0l18.8-1.1c5.6-0.3,10-4.7,10-10.1v-4.1C300,300.1,295.3,295.5,289.4,295.5z M292.7,309.8c0,1.4-1.3,2.6-3.1,2.7
		l-18.8,1.1c-0.1,0-0.2,0-0.2,0c-1.8,0-3.3-1.2-3.3-2.7v-4.1c0-1.4,1.3-2.6,3.1-2.7l18.8-1.1c0.1,0,0.2,0,0.2,0
		c1.8,0,3.3,1.2,3.3,2.7V309.8z"/>
	<path class="st0" d="M234.9,330.9h-21.1c-5.9,0-10.7,4.8-10.7,10.7v2.9c0,5.9,4.8,10.7,10.7,10.7h21.1c5.9,0,10.7-4.8,10.7-10.7
		v-2.9C245.6,335.7,240.8,330.9,234.9,330.9z M238.2,344.5c0,1.9-1.5,3.4-3.4,3.4h-21.1c-1.9,0-3.4-1.5-3.4-3.4v-2.9
		c0-1.9,1.5-3.4,3.4-3.4h21.1c1.9,0,3.4,1.5,3.4,3.4V344.5z"/>
	<path class="st0" d="M178.7,330.2l-18.8-1.1c-0.2,0-0.4,0-0.6,0c0,0,0,0,0,0c-5.9,0-10.6,4.5-10.6,10.1v4.1c0,5.3,4.4,9.7,10,10.1
		l18.8,1.1c0.2,0,0.4,0,0.6,0c5.9,0,10.6-4.5,10.6-10.1v-4.1C188.7,334.9,184.3,330.5,178.7,330.2z M181.4,344.4
		c0,1.5-1.5,2.7-3.3,2.7c-0.1,0-0.2,0-0.2,0l-18.8-1.1c-1.7-0.1-3.1-1.3-3.1-2.7v-4.1c0-1.5,1.5-2.7,3.3-2.7c0.1,0,0.2,0,0.2,0
		l18.8,1.1c1.7,0.1,3.1,1.3,3.1,2.7V344.4z"/>
	<path class="st0" d="M289.4,329.1c-0.2,0-0.4,0-0.6,0l-18.8,1.1c-5.6,0.3-10,4.7-10,10.1v4.1c0,5.6,4.8,10.1,10.6,10.1
		c0.2,0,0.4,0,0.6,0l18.8-1.1c5.6-0.3,10-4.7,10-10.1v-4.1C300,333.6,295.3,329.1,289.4,329.1z M292.7,343.3c0,1.4-1.3,2.6-3.1,2.7
		l-18.8,1.1c-0.1,0-0.2,0-0.2,0c-1.8,0-3.3-1.2-3.3-2.7v-4.1c0-1.4,1.3-2.6,3.1-2.7l18.8-1.1c0.1,0,0.2,0,0.2,0
		c1.8,0,3.3,1.2,3.3,2.7V343.3z"/>
	<path class="st0" d="M234.9,364.5h-21.1c-5.9,0-10.7,4.8-10.7,10.7v2.9c0,5.9,4.8,10.7,10.7,10.7h21.1c5.9,0,10.7-4.8,10.7-10.7
		v-2.9C245.6,369.3,240.8,364.5,234.9,364.5z M238.2,378.1c0,1.9-1.5,3.4-3.4,3.4h-21.1c-1.9,0-3.4-1.5-3.4-3.4v-2.9
		c0-1.9,1.5-3.4,3.4-3.4h21.1c1.9,0,3.4,1.5,3.4,3.4V378.1z"/>
	<path class="st0" d="M178.7,363.8l-18.8-1.1c-0.2,0-0.4,0-0.6,0c0,0,0,0,0,0c-5.9,0-10.6,4.5-10.6,10.1v4.1c0,5.3,4.4,9.7,10,10.1
		l18.8,1.1c0.2,0,0.4,0,0.6,0c5.9,0,10.6-4.5,10.6-10.1v-4.1C188.7,368.5,184.3,364.1,178.7,363.8z M181.4,378
		c0,1.5-1.5,2.7-3.3,2.7c-0.1,0-0.2,0-0.2,0l-18.8-1.1c-1.7-0.1-3.1-1.3-3.1-2.7v-4.1c0-1.5,1.5-2.7,3.3-2.7c0.1,0,0.2,0,0.2,0
		l18.8,1.1c1.7,0.1,3.1,1.3,3.1,2.7V378z"/>
	<path class="st0" d="M289.4,362.7c-0.2,0-0.4,0-0.6,0l-18.8,1.1c-5.6,0.3-10,4.7-10,10.1v4.1c0,5.6,4.8,10.1,10.6,10.1
		c0.2,0,0.4,0,0.6,0L290,387c5.6-0.3,10-4.7,10-10.1v-4.1C300,367.2,295.3,362.7,289.4,362.7z M292.7,376.9c0,1.4-1.3,2.6-3.1,2.7
		l-18.8,1.1c-0.1,0-0.2,0-0.2,0c-1.8,0-3.3-1.2-3.3-2.7v-4.1c0-1.4,1.3-2.6,3.1-2.7l18.8-1.1c0.1,0,0.2,0,0.2,0
		c1.8,0,3.3,1.2,3.3,2.7V376.9z"/>
	<path class="st0" d="M234.9,398.1h-21.1c-5.9,0-10.7,4.8-10.7,10.7v2.9c0,5.9,4.8,10.7,10.7,10.7h21.1c5.9,0,10.7-4.8,10.7-10.7
		v-2.9C245.6,402.9,240.8,398.1,234.9,398.1z M238.2,411.6c0,1.9-1.5,3.4-3.4,3.4h-21.1c-1.9,0-3.4-1.5-3.4-3.4v-2.9
		c0-1.9,1.5-3.4,3.4-3.4h21.1c1.9,0,3.4,1.5,3.4,3.4V411.6z"/>
	<path class="st0" d="M178.7,397.4l-18.8-1.1c-0.2,0-0.4,0-0.6,0c0,0,0,0,0,0c-5.9,0-10.6,4.5-10.6,10.1v4.1c0,5.3,4.4,9.7,10,10.1
		l18.8,1.1c0.2,0,0.4,0,0.6,0c5.9,0,10.6-4.5,10.6-10.1v-4.1C188.7,402.1,184.3,397.7,178.7,397.4z M181.4,411.5
		c0,1.5-1.5,2.7-3.3,2.7c-0.1,0-0.2,0-0.2,0l-18.8-1.1c-1.7-0.1-3.1-1.3-3.1-2.7v-4.1c0-1.5,1.5-2.7,3.3-2.7c0.1,0,0.2,0,0.2,0
		l18.8,1.1c1.7,0.1,3.1,1.3,3.1,2.7V411.5z"/>
	<path class="st0" d="M289.4,396.3c-0.2,0-0.4,0-0.6,0l-18.8,1.1c-5.6,0.3-10,4.7-10,10.1v4.1c0,5.6,4.8,10.1,10.6,10.1
		c0.2,0,0.4,0,0.6,0l18.8-1.1c5.6-0.3,10-4.7,10-10.1v-4.1C300,400.8,295.3,396.3,289.4,396.3z M292.7,410.5c0,1.4-1.3,2.6-3.1,2.7
		l-18.8,1.1c-0.1,0-0.2,0-0.2,0c-1.8,0-3.3-1.2-3.3-2.7v-4.1c0-1.4,1.3-2.6,3.1-2.7l18.8-1.1c0.1,0,0.2,0,0.2,0
		c1.8,0,3.3,1.2,3.3,2.7V410.5z"/>
	<path class="st0" d="M234.9,431.6h-21.1c-5.9,0-10.7,4.8-10.7,10.7v2.9c0,5.9,4.8,10.7,10.7,10.7h21.1c5.9,0,10.7-4.8,10.7-10.7
		v-2.9C245.6,436.4,240.8,431.6,234.9,431.6z M238.2,445.2c0,1.9-1.5,3.4-3.4,3.4h-21.1c-1.9,0-3.4-1.5-3.4-3.4v-2.9
		c0-1.9,1.5-3.4,3.4-3.4h21.1c1.9,0,3.4,1.5,3.4,3.4V445.2z"/>
	<path class="st0" d="M178.7,430.9l-18.8-1.1c-0.2,0-0.4,0-0.6,0c0,0,0,0,0,0c-5.9,0-10.6,4.5-10.6,10.1v4.1c0,5.3,4.4,9.7,10,10.1
		l18.8,1.1c0.2,0,0.4,0,0.6,0c5.9,0,10.6-4.5,10.6-10.1V441C188.7,435.7,184.3,431.3,178.7,430.9z M181.4,445.1
		c0,1.5-1.5,2.7-3.3,2.7c-0.1,0-0.2,0-0.2,0l-18.8-1.1c-1.7-0.1-3.1-1.3-3.1-2.7v-4.1c0-1.5,1.5-2.7,3.3-2.7c0.1,0,0.2,0,0.2,0
		l18.8,1.1c1.7,0.1,3.1,1.3,3.1,2.7V445.1z"/>
	<path class="st0" d="M289.4,429.8c-0.2,0-0.4,0-0.6,0l-18.8,1.1c-5.6,0.3-10,4.7-10,10.1v4.1c0,5.6,4.8,10.1,10.6,10.1
		c0.2,0,0.4,0,0.6,0l18.8-1.1c5.6-0.3,10-4.7,10-10.1v-4.1C300,434.4,295.3,429.8,289.4,429.8z M292.7,444c0,1.4-1.3,2.6-3.1,2.7
		l-18.8,1.1c-0.1,0-0.2,0-0.2,0c-1.8,0-3.3-1.2-3.3-2.7V441c0-1.4,1.3-2.6,3.1-2.7l18.8-1.1c0.1,0,0.2,0,0.2,0
		c1.8,0,3.3,1.2,3.3,2.7V444z"/>
	<path class="st0" d="M155.2,260.4h14c2,0,3.7-1.6,3.7-3.7s-1.6-3.7-3.7-3.7h-14c-2,0-3.7,1.6-3.7,3.7S153.2,260.4,155.2,260.4z"/>
	<path class="st0" d="M184.2,260.4h14.1c2,0,3.7-1.6,3.7-3.7s-1.6-3.7-3.7-3.7h-14.1c-2,0-3.7,1.6-3.7,3.7S182.2,260.4,184.2,260.4z
		"/>
	<path class="st0" d="M250.4,260.4h14c2,0,3.7-1.6,3.7-3.7s-1.6-3.7-3.7-3.7h-14c-2,0-3.7,1.6-3.7,3.7S248.3,260.4,250.4,260.4z"/>
	<path class="st0" d="M279.3,260.4h14.1c2,0,3.7-1.6,3.7-3.7s-1.6-3.7-3.7-3.7h-14.1c-2,0-3.7,1.6-3.7,3.7S277.3,260.4,279.3,260.4z
		"/>
	<path class="st0" d="M350.1,123.6l-11.1-8.2C338,99.6,337,87,336.2,78.6c-0.9-9.8-8.6-17.7-18.8-19c-20.1-2.7-72.4-5.3-98.3-5.3
		c-26.3,0-70.1,2.6-90.1,5.3c-10.2,1.4-17.9,9.2-18.8,19c-2.6,28.1-8,102.8-3,189.5c5.1,88.1,14.6,175.4,18.4,208.8
		c1.1,9.8,9,17.5,19.2,18.6c17.2,2,47,4.4,74.3,4.4c29.1,0,67.3-2.6,82.6-4.4c10.2-1.2,18-8.9,19.2-18.6c0.3-2.7,0.6-5.7,1-9
		l7.6-1.9l2.6-0.8l0.1,0c7.9-2.7,13.6-9.7,14.4-17.7c4.7-44.4,11.2-111.6,15.1-179.4c2.4-41.6,2.7-85,0.9-129
		C362.3,131.6,352.4,125,350.1,123.6z M303.2,65.4c0.8,1.2,2.5,3.8,4.1,8.1c2,5.3,4.3,14.3,4.7,27.7H134.4
		c0.4-13.4,2.7-22.4,4.7-27.7c1.7-4.4,3.3-7,4.2-8.2c22.1-2.1,54.7-3.7,75.8-3.7C240.2,61.6,279.1,63.3,303.2,65.4z M136.2,157.5
		c1.4-5.8,6.5-10.3,13-10.9c17.7-1.7,50.3-4.6,69.9-4.6c19.1,0,58.4,2.7,78.1,4.6c6.5,0.6,11.6,5.2,13,10.9
		c-0.9,15.6-2.1,38.3-3.9,73.5H140.1C138.3,195.8,137.1,173.1,136.2,157.5z M297.9,139.3c-19.9-1.9-59.5-4.6-78.8-4.6
		c-18.9,0-48.9,2.5-70.6,4.6c-5,0.5-9.5,2.6-13,5.7c-1.1-19.7-1.2-23.1-1.2-36.4h177.7c0,13.3-0.1,16.7-1.2,36.4
		C307.5,141.9,303,139.8,297.9,139.3z M140.5,238.3h165.3l-1.2,19.7c-0.3,6.8-5.7,12.4-12.8,13.3c-13,1.6-44.1,4-72.8,4
		c-27.6,0-50.3-2.2-64.5-4c-7.1-0.9-12.5-6.5-12.8-13.4L140.5,238.3z M151.6,489l5.6-8.3c1-1.5,2.8-2.5,4.7-2.5h123.6
		c1.9,0,3.7,0.9,4.7,2.4l4.9,8.2c-17.5,1.7-50.3,3.7-76.1,3.7C195,492.7,169,490.8,151.6,489z M313.5,476.2
		c-0.6,5.7-4.8,10.2-10.5,11.8l-6.6-11.1l-0.1-0.1c-2.4-3.6-6.4-5.8-10.8-5.8H161.9c-4.4,0-8.5,2.1-10.8,5.7l-7.6,11.3
		c-5.7-1.5-10-6.1-10.6-11.8c-3.8-33.4-13.2-120.5-18.3-208.4c-5-86.2,0.4-160.5,2.9-188.5c0.6-6.4,5.7-11.5,12.5-12.5
		c1.3-0.2,2.8-0.4,4.3-0.5C131,73,127,85.2,127,104.9c0,19.2,0,19.2,1.8,51.7c0,0.1,0,0.2,0,0.3c-0.3,1.5-0.4,3-0.3,4.5l4.5,75
		c0.1,1.2,0.1,2.4,0.2,3.6l0,0l1.1,18.3c0.4,10.4,8.5,18.9,19.2,20.3c14.4,1.8,37.5,4,65.5,4c29,0,60.5-2.4,73.7-4
		c10.7-1.4,18.8-9.9,19.2-20.2l1.1-18.3l0,0c0.1-1.2,0.1-2.4,0.2-3.6l4.5-75.1c0.1-1.5,0-3-0.3-4.4c0-0.1,0-0.2,0-0.3
		c1.8-32.5,1.8-32.5,1.8-51.7c0-19.7-4-31.9-7.2-38.6c1.5,0.2,3,0.3,4.3,0.5c6.8,0.9,11.9,6,12.5,12.5c2.6,27.9,8,102.2,2.9,188.5
		C326.8,355.7,317.3,442.8,313.5,476.2z M354.4,267.8c-3.9,67.6-10.4,134.7-15.1,179c-0.6,5.2-4.3,9.7-9.5,11.6l-2.2,0.7l-4.9,1.2
		c4.5-40.8,12.1-116.1,16.5-192c3.2-55.8,2.2-106.7,0.3-143.3l6.4,4.7l0.3,0.2c3.8,2.3,9.1,7,9.2,9.7
		C357.1,183.2,356.8,226.4,354.4,267.8z"/>
	<path class="st0" d="M348,67.7c0,2,1.6,3.7,3.7,3.7c2,0,3.7-1.6,3.7-3.7c0-15.6-12.7-28.2-28.2-28.2c-2,0-3.7,1.6-3.7,3.7
		c0,2,1.6,3.7,3.7,3.7C338.7,46.8,348,56.2,348,67.7z"/>
	<path class="st0" d="M327.2,19c-2,0-3.7,1.6-3.7,3.7s1.6,3.7,3.7,3.7c22.8,0,41.4,18.6,41.4,41.4c0,2,1.6,3.7,3.7,3.7
		c2,0,3.7-1.6,3.7-3.7C375.8,40.8,354,19,327.2,19z"/>
	<path class="st0" d="M327.2,0c-2,0-3.7,1.6-3.7,3.7s1.6,3.7,3.7,3.7c33.3,0,60.4,27.1,60.4,60.4c0,2,1.6,3.7,3.7,3.7
		s3.7-1.6,3.7-3.7C394.9,30.4,364.5,0,327.2,0z"/>
</g>
</svg>
