<?xml version="1.0" encoding="utf-8"?>
<!-- Generator: Adobe Illustrator 19.2.1, SVG Export Plug-In . SVG Version: 6.00 Build 0)  -->
<svg version="1.1" id="Layer_1" xmlns="http://www.w3.org/2000/svg" xmlns:xlink="http://www.w3.org/1999/xlink" x="0px" y="0px"
	 viewBox="0 0 500 500" style="enable-background:new 0 0 500 500;" xml:space="preserve">
<style type="text/css">
	.st0{fill:#121210;}
</style>
<g>
	<g>
		<g>
			<path class="st0" d="M248.1,360.6c-0.6,0-1.2-0.1-1.7-0.4c-1.3-0.7-2.1-2-2.1-3.4v-68.7l-51.2-32.3c-1.8-1.1-2.3-3.5-1.2-5.2
				c1.1-1.8,3.5-2.3,5.2-1.2l52.9,33.4c0,0,0,0,0,0l52.8,33.3c1.1,0.7,1.7,1.8,1.8,3.1c0,1.3-0.6,2.5-1.6,3.2l-52.8,37.5
				C249.6,360.4,248.8,360.6,248.1,360.6z M251.9,292.9v56.6l42.2-30L251.9,292.9z"/>
		</g>
		<g>
			<path class="st0" d="M195.1,323.1c-1.3,0-2.5-0.6-3.2-1.8c-1.1-1.8-0.6-4.1,1.2-5.2l51.2-32.3v-68.7c0-1.4,0.8-2.7,2.1-3.4
				c1.3-0.7,2.8-0.5,3.9,0.3l52.8,37.5c1,0.7,1.6,1.9,1.6,3.2c0,1.3-0.7,2.4-1.8,3.1l-52.7,33.3c0,0-0.1,0-0.1,0.1l-52.9,33.4
				C196.5,322.9,195.8,323.1,195.1,323.1z M251.9,222.4V279l42.2-26.6L251.9,222.4z"/>
		</g>
	</g>
	<g>
		<path class="st0" d="M250,455.1c-1.2,0-2.3-0.5-3-1.4L77,238c-1.3-1.6-1-4,0.6-5.3c24-19,50.8-33.8,79.6-43.9
			c29.7-10.5,61-15.8,92.8-15.8c31.8,0,63.1,5.3,92.8,15.8c28.8,10.2,55.5,24.9,79.6,43.9c1.6,1.3,1.9,3.7,0.6,5.3L253,453.6
			C252.3,454.6,251.2,455.1,250,455.1z M85.3,236.3L250,445.2l164.7-208.9c-22.6-17.3-47.6-30.9-74.4-40.4
			c-28.9-10.2-59.3-15.4-90.3-15.4c-31,0-61.4,5.2-90.3,15.4C132.9,205.4,107.9,218.9,85.3,236.3z"/>
	</g>
	<g>
		<path class="st0" d="M461.3,188.8c-0.8,0-1.7-0.3-2.3-0.8c-29.1-23-61.6-40.9-96.4-53.2c-36.1-12.7-73.9-19.2-112.5-19.2
			c-38.6,0-76.5,6.5-112.5,19.2C102.7,147.1,70.2,165,41.1,188c-1.6,1.3-4,1-5.3-0.6c-1.3-1.6-1-4,0.6-5.3
			c29.8-23.5,63-41.8,98.6-54.4c36.9-13,75.6-19.6,115-19.6c39.5,0,78.2,6.6,115,19.6c35.6,12.6,68.8,30.9,98.6,54.4
			c1.6,1.3,1.9,3.7,0.6,5.3C463.5,188.3,462.4,188.8,461.3,188.8z"/>
	</g>
	<g>
		<path class="st0" d="M496.2,137.9c-0.8,0-1.7-0.3-2.3-0.8c-34-26.8-71.9-47.8-112.5-62.1C339.2,60,295.1,52.5,250,52.5
			c-45.1,0-89.2,7.5-131.3,22.4C78,89.3,40.2,110.2,6.1,137c-1.6,1.3-4,1-5.3-0.6c-1.3-1.6-1-4,0.6-5.3
			c34.7-27.4,73.3-48.7,114.7-63.3c42.9-15.2,87.9-22.9,133.8-22.9c45.9,0,90.9,7.7,133.8,22.9c41.5,14.7,80.1,36,114.7,63.3
			c1.6,1.3,1.9,3.7,0.6,5.3C498.4,137.4,497.3,137.9,496.2,137.9z"/>
	</g>
</g>
</svg>
