<?xml version="1.0" encoding="utf-8"?>
<!-- Generator: Adobe Illustrator 19.2.1, SVG Export Plug-In . SVG Version: 6.00 Build 0)  -->
<svg version="1.1" id="Layer_1" xmlns="http://www.w3.org/2000/svg" xmlns:xlink="http://www.w3.org/1999/xlink" x="0px" y="0px"
	 viewBox="0 0 500 500" style="enable-background:new 0 0 500 500;" xml:space="preserve">
<style type="text/css">
	.st0{fill:#121210;}
</style>
<g>
	<path class="st0" d="M417.7,0H82.3C71.6,0,62.9,8.7,62.9,19.4v461.3c0,10.7,8.7,19.4,19.4,19.4h335.4c10.7,0,19.4-8.7,19.4-19.4
		V19.4C437.1,8.7,428.4,0,417.7,0z M426.9,480.6c0,5.1-4.2,9.3-9.3,9.3H82.3c-5.1,0-9.3-4.2-9.3-9.3V19.4c0-5.1,4.2-9.3,9.3-9.3
		h335.4c5.1,0,9.3,4.2,9.3,9.3V480.6z"/>
	<path class="st0" d="M376.7,42.4H123.3c-10.7,0-19.4,8.7-19.4,19.4v68.4c0,10.7,8.7,19.4,19.4,19.4h253.5
		c10.7,0,19.4-8.7,19.4-19.4V61.8C396.1,51.1,387.4,42.4,376.7,42.4z M386,130.2c0,5.1-4.2,9.3-9.3,9.3H123.3
		c-5.1,0-9.3-4.2-9.3-9.3V61.8c0-5.1,4.2-9.3,9.3-9.3h253.5c5.1,0,9.3,4.2,9.3,9.3V130.2z"/>
	<path class="st0" d="M138.9,176h-15.6c-10.7,0-19.4,8.7-19.4,19.4V211c0,10.7,8.7,19.4,19.4,19.4h15.6c10.7,0,19.4-8.7,19.4-19.4
		v-15.6C158.3,184.7,149.6,176,138.9,176z M148.2,211c0,5.1-4.2,9.3-9.3,9.3h-15.6c-5.1,0-9.3-4.2-9.3-9.3v-15.6
		c0-5.1,4.2-9.3,9.3-9.3h15.6c5.1,0,9.3,4.2,9.3,9.3V211z"/>
	<path class="st0" d="M138.9,251.6h-15.6c-10.7,0-19.4,8.7-19.4,19.4v15.6c0,10.7,8.7,19.4,19.4,19.4h15.6
		c10.7,0,19.4-8.7,19.4-19.4v-15.6C158.3,260.3,149.6,251.6,138.9,251.6z M148.2,286.6c0,5.1-4.2,9.3-9.3,9.3h-15.6
		c-5.1,0-9.3-4.2-9.3-9.3v-15.6c0-5.1,4.2-9.3,9.3-9.3h15.6c5.1,0,9.3,4.2,9.3,9.3V286.6z"/>
	<path class="st0" d="M138.9,327.2h-15.6c-10.7,0-19.4,8.7-19.4,19.4v15.6c0,10.7,8.7,19.4,19.4,19.4h15.6
		c10.7,0,19.4-8.7,19.4-19.4v-15.6C158.3,335.8,149.6,327.2,138.9,327.2z M148.2,362.2c0,5.1-4.2,9.3-9.3,9.3h-15.6
		c-5.1,0-9.3-4.2-9.3-9.3v-15.6c0-5.1,4.2-9.3,9.3-9.3h15.6c5.1,0,9.3,4.2,9.3,9.3V362.2z"/>
	<path class="st0" d="M138.9,402.7h-15.6c-10.7,0-19.4,8.7-19.4,19.4v15.6c0,10.7,8.7,19.4,19.4,19.4h15.6
		c10.7,0,19.4-8.7,19.4-19.4v-15.6C158.3,411.4,149.6,402.7,138.9,402.7z M148.2,437.8c0,5.1-4.2,9.3-9.3,9.3h-15.6
		c-5.1,0-9.3-4.2-9.3-9.3v-15.6c0-5.1,4.2-9.3,9.3-9.3h15.6c5.1,0,9.3,4.2,9.3,9.3V437.8z"/>
	<path class="st0" d="M213.3,176h-15.6c-10.7,0-19.4,8.7-19.4,19.4V211c0,10.7,8.7,19.4,19.4,19.4h15.6c10.7,0,19.4-8.7,19.4-19.4
		v-15.6C232.6,184.7,223.9,176,213.3,176z M222.5,211c0,5.1-4.2,9.3-9.3,9.3h-15.6c-5.1,0-9.3-4.2-9.3-9.3v-15.6
		c0-5.1,4.2-9.3,9.3-9.3h15.6c5.1,0,9.3,4.2,9.3,9.3V211z"/>
	<path class="st0" d="M213.3,251.6h-15.6c-10.7,0-19.4,8.7-19.4,19.4v15.6c0,10.7,8.7,19.4,19.4,19.4h15.6
		c10.7,0,19.4-8.7,19.4-19.4v-15.6C232.6,260.3,223.9,251.6,213.3,251.6z M222.5,286.6c0,5.1-4.2,9.3-9.3,9.3h-15.6
		c-5.1,0-9.3-4.2-9.3-9.3v-15.6c0-5.1,4.2-9.3,9.3-9.3h15.6c5.1,0,9.3,4.2,9.3,9.3V286.6z"/>
	<path class="st0" d="M213.3,327.2h-15.6c-10.7,0-19.4,8.7-19.4,19.4v15.6c0,10.7,8.7,19.4,19.4,19.4h15.6
		c10.7,0,19.4-8.7,19.4-19.4v-15.6C232.6,335.8,223.9,327.2,213.3,327.2z M222.5,362.2c0,5.1-4.2,9.3-9.3,9.3h-15.6
		c-5.1,0-9.3-4.2-9.3-9.3v-15.6c0-5.1,4.2-9.3,9.3-9.3h15.6c5.1,0,9.3,4.2,9.3,9.3V362.2z"/>
	<path class="st0" d="M213.3,402.7h-15.6c-10.7,0-19.4,8.7-19.4,19.4v15.6c0,10.7,8.7,19.4,19.4,19.4h15.6
		c10.7,0,19.4-8.7,19.4-19.4v-15.6C232.6,411.4,223.9,402.7,213.3,402.7z M222.5,437.8c0,5.1-4.2,9.3-9.3,9.3h-15.6
		c-5.1,0-9.3-4.2-9.3-9.3v-15.6c0-5.1,4.2-9.3,9.3-9.3h15.6c5.1,0,9.3,4.2,9.3,9.3V437.8z"/>
	<path class="st0" d="M287.6,176H272c-10.7,0-19.4,8.7-19.4,19.4V211c0,10.7,8.7,19.4,19.4,19.4h15.6c10.7,0,19.4-8.7,19.4-19.4
		v-15.6C307,184.7,298.3,176,287.6,176z M296.9,211c0,5.1-4.2,9.3-9.3,9.3H272c-5.1,0-9.3-4.2-9.3-9.3v-15.6c0-5.1,4.2-9.3,9.3-9.3
		h15.6c5.1,0,9.3,4.2,9.3,9.3V211z"/>
	<path class="st0" d="M287.6,251.6H272c-10.7,0-19.4,8.7-19.4,19.4v15.6c0,10.7,8.7,19.4,19.4,19.4h15.6c10.7,0,19.4-8.7,19.4-19.4
		v-15.6C307,260.3,298.3,251.6,287.6,251.6z M296.9,286.6c0,5.1-4.2,9.3-9.3,9.3H272c-5.1,0-9.3-4.2-9.3-9.3v-15.6
		c0-5.1,4.2-9.3,9.3-9.3h15.6c5.1,0,9.3,4.2,9.3,9.3V286.6z"/>
	<path class="st0" d="M287.6,327.2H272c-10.7,0-19.4,8.7-19.4,19.4v15.6c0,10.7,8.7,19.4,19.4,19.4h15.6c10.7,0,19.4-8.7,19.4-19.4
		v-15.6C307,335.8,298.3,327.2,287.6,327.2z M296.9,362.2c0,5.1-4.2,9.3-9.3,9.3H272c-5.1,0-9.3-4.2-9.3-9.3v-15.6
		c0-5.1,4.2-9.3,9.3-9.3h15.6c5.1,0,9.3,4.2,9.3,9.3V362.2z"/>
	<path class="st0" d="M287.6,402.7H272c-10.7,0-19.4,8.7-19.4,19.4v15.6c0,10.7,8.7,19.4,19.4,19.4h15.6c10.7,0,19.4-8.7,19.4-19.4
		v-15.6C307,411.4,298.3,402.7,287.6,402.7z M296.9,437.8c0,5.1-4.2,9.3-9.3,9.3H272c-5.1,0-9.3-4.2-9.3-9.3v-15.6
		c0-5.1,4.2-9.3,9.3-9.3h15.6c5.1,0,9.3,4.2,9.3,9.3V437.8z"/>
	<path class="st0" d="M363.4,170.4c-18,0-32.7,14.7-32.7,32.7s14.7,32.7,32.7,32.7s32.7-14.7,32.7-32.7S381.4,170.4,363.4,170.4z
		 M363.4,225.8c-12.5,0-22.6-10.1-22.6-22.6c0-12.5,10.2-22.6,22.6-22.6c12.5,0,22.6,10.2,22.6,22.6
		C386,215.6,375.9,225.8,363.4,225.8z"/>
	<path class="st0" d="M363.4,246c-18,0-32.7,14.7-32.7,32.7c0,18,14.7,32.7,32.7,32.7s32.7-14.7,32.7-32.7
		C396.1,260.7,381.4,246,363.4,246z M363.4,301.4c-12.5,0-22.6-10.1-22.6-22.6c0-12.5,10.2-22.6,22.6-22.6
		c12.5,0,22.6,10.1,22.6,22.6C386,291.2,375.9,301.4,363.4,301.4z"/>
	<path class="st0" d="M363.4,321.6c-18,0-32.7,14.7-32.7,32.7s14.7,32.7,32.7,32.7s32.7-14.7,32.7-32.7S381.4,321.6,363.4,321.6z
		 M363.4,377c-12.5,0-22.6-10.1-22.6-22.6s10.2-22.6,22.6-22.6c12.5,0,22.6,10.1,22.6,22.6S375.9,377,363.4,377z"/>
	<path class="st0" d="M363.4,397.2c-18,0-32.7,14.7-32.7,32.7c0,18,14.7,32.7,32.7,32.7s32.7-14.7,32.7-32.7
		C396.1,411.9,381.4,397.2,363.4,397.2z M363.4,452.6c-12.5,0-22.6-10.1-22.6-22.6c0-12.5,10.2-22.6,22.6-22.6
		c12.5,0,22.6,10.1,22.6,22.6C386,442.4,375.9,452.6,363.4,452.6z"/>
	<path class="st0" d="M374.4,197.9h-5.9V192c0-2.8-2.3-5.1-5.1-5.1s-5.1,2.3-5.1,5.1v5.9h-5.9c-2.8,0-5.1,2.3-5.1,5.1
		c0,2.8,2.3,5.1,5.1,5.1h5.9v5.9c0,2.8,2.3,5.1,5.1,5.1s5.1-2.3,5.1-5.1V208h5.9c2.8,0,5.1-2.3,5.1-5.1
		C379.4,200.2,377.2,197.9,374.4,197.9z"/>
	<path class="st0" d="M374.4,274.2h-22c-2.8,0-5.1,2.3-5.1,5.1s2.3,5.1,5.1,5.1h22c2.8,0,5.1-2.3,5.1-5.1S377.2,274.2,374.4,274.2z"
		/>
	<path class="st0" d="M374.4,424.9h-22c-2.8,0-5.1,2.3-5.1,5.1s2.3,5.1,5.1,5.1h22c2.8,0,5.1-2.3,5.1-5.1S377.2,424.9,374.4,424.9z"
		/>
	<path class="st0" d="M362.8,422.7h1.3c2.8,0,5.1-2.3,5.1-5.1s-2.3-5.1-5.1-5.1h-1.3c-2.8,0-5.1,2.3-5.1,5.1S360,422.7,362.8,422.7z
		"/>
	<path class="st0" d="M364,437.2h-1.3c-2.8,0-5.1,2.3-5.1,5.1c0,2.8,2.3,5.1,5.1,5.1h1.3c2.8,0,5.1-2.3,5.1-5.1
		C369.1,439.4,366.8,437.2,364,437.2z"/>
	<path class="st0" d="M374.7,343.3c-2-2-5.2-2-7.1,0l-4.2,4.2l-4.2-4.2c-2-2-5.2-2-7.1,0c-2,2-2,5.2,0,7.1l4.2,4.2l-4.2,4.2
		c-2,2-2,5.2,0,7.1c1,1,2.3,1.5,3.6,1.5c1.3,0,2.6-0.5,3.6-1.5l4.2-4.2l4.2,4.2c1,1,2.3,1.5,3.6,1.5c1.3,0,2.6-0.5,3.6-1.5
		c2-2,2-5.2,0-7.1l-4.2-4.2l4.2-4.2C376.7,348.4,376.7,345.2,374.7,343.3z"/>
</g>
</svg>
