<?xml version="1.0" encoding="utf-8"?>
<!-- Generator: Adobe Illustrator 19.2.1, SVG Export Plug-In . SVG Version: 6.00 Build 0)  -->
<svg version="1.1" id="Layer_1" xmlns="http://www.w3.org/2000/svg" xmlns:xlink="http://www.w3.org/1999/xlink" x="0px" y="0px"
	 viewBox="0 0 500 500" style="enable-background:new 0 0 500 500;" xml:space="preserve">
<style type="text/css">
	.st0{fill:#121210;}
</style>
<g>
	<path class="st0" d="M499.8,383.3c-0.1-4.7-3.9-8.5-8.6-8.5h-41.5V108.5c0-12.6-10.2-22.8-22.8-22.8H73.1
		c-12.6,0-22.8,10.2-22.8,22.8v266.3H8.8c-4.7,0-8.5,3.8-8.6,8.5L0,396.7c-0.1,4.3,3,7.9,7.2,8.6l43.3,7.3
		c6.6,1.1,13.4,1.7,20.1,1.7h358.9c6.7,0,13.5-0.6,20.1-1.7l43.3-7.3c4.2-0.7,7.2-4.3,7.2-8.6L499.8,383.3z M57.1,108.5
		c0-8.8,7.1-15.9,15.9-15.9h353.9c8.8,0,15.9,7.1,15.9,15.9v266.3H57.1V108.5z M491.7,398.5l-43.3,7.3c-6.3,1.1-12.6,1.6-19,1.6
		H70.6c-6.3,0-12.7-0.5-19-1.6l-43.3-7.3c-0.9-0.1-1.5-0.9-1.5-1.8L7,383.4c0-1,0.8-1.7,1.8-1.7h41.5h399.4h41.5
		c1,0,1.7,0.8,1.8,1.7l0.2,13.3C493.2,397.6,492.6,398.4,491.7,398.5z"/>
	<path class="st0" d="M413,112.5H87c-4.5,0-8.3,3.7-8.3,8.3v224.2c0,4.5,3.7,8.3,8.3,8.3H413c4.5,0,8.3-3.7,8.3-8.3V120.7
		C421.3,116.2,417.6,112.5,413,112.5z M414.5,344.9c0,0.8-0.6,1.4-1.4,1.4H87c-0.8,0-1.4-0.6-1.4-1.4V120.7c0-0.8,0.6-1.4,1.4-1.4
		H413c0.8,0,1.4,0.6,1.4,1.4V344.9z"/>
	<path class="st0" d="M267.4,391.1h-34.8c-1.9,0-3.4,1.5-3.4,3.4c0,1.9,1.5,3.4,3.4,3.4h34.8c1.9,0,3.4-1.5,3.4-3.4
		C270.8,392.7,269.3,391.1,267.4,391.1z"/>
	<path class="st0" d="M353.1,162.3h-21.7c-3.7,0-7,2.5-8,6l-6.7,22.7h-130c-1.9,0-3.7,0.9-4.8,2.4c-1.1,1.5-1.5,3.5-0.9,5.3l17.2,58
		c0.8,2.5,3.1,4.3,5.8,4.3h91.9l-5.2,17.5c-0.2,0.6-0.8,1.1-1.5,1.1h-82.4c-1.9,0-3.4,1.5-3.4,3.4s1.5,3.4,3.4,3.4h82.4
		c3.7,0,7-2.5,8-6L330,170.2c0.2-0.6,0.8-1.1,1.5-1.1h21.7c1.9,0,3.4-1.5,3.4-3.4C356.5,163.9,355,162.3,353.1,162.3z M308.2,219.6
		h-23.3v-21.7h29.8L308.2,219.6z M248,226.4v27.8h-26.4v-27.8H248z M221.6,219.6v-21.7H248v21.7H221.6z M254.8,226.4h23.3v27.8
		h-23.3V226.4z M254.8,219.6v-21.7h23.3v21.7H254.8z M214.8,197.8v21.7h-20.5l-6.5-21.7H214.8z M196.3,226.4h18.5v27.8h-10.2
		L196.3,226.4z M284.9,254.2v-27.8h21.3l-8.3,27.8H284.9z"/>
	<path class="st0" d="M211.2,293.7c-6.8,0-12.4,5.6-12.4,12.4c0,6.8,5.6,12.4,12.4,12.4s12.4-5.6,12.4-12.4
		C223.6,299.2,218,293.7,211.2,293.7z M211.2,311.7c-3.1,0-5.6-2.5-5.6-5.6c0-3.1,2.5-5.6,5.6-5.6s5.6,2.5,5.6,5.6
		C216.8,309.2,214.2,311.7,211.2,311.7z"/>
	<path class="st0" d="M288.9,293.7c-6.8,0-12.4,5.6-12.4,12.4c0,6.8,5.6,12.4,12.4,12.4s12.4-5.6,12.4-12.4
		C301.4,299.2,295.8,293.7,288.9,293.7z M288.9,311.7c-3.1,0-5.6-2.5-5.6-5.6c0-3.1,2.5-5.6,5.6-5.6c3.1,0,5.6,2.5,5.6,5.6
		C294.5,309.2,292,311.7,288.9,311.7z"/>
</g>
</svg>
