<svg id="Kartenakzeptanz" xmlns="http://www.w3.org/2000/svg" viewBox="0 0 476.66 438.72"><defs><style>.cls-1{fill:#fff;}</style></defs><title>email</title><path class="cls-1" d="M804,376.06,645.88,217.92a14.43,14.43,0,0,0-10.27-4.28h0a14.3,14.3,0,0,0-10.18,4.22L373.77,469.5a14.51,14.51,0,0,0,0,20.47l49.82,49.82L332.8,630.63a4,4,0,0,0,5.66,5.66l90.84-90.84,24.79,24.79-65.51,65.52a4,4,0,1,0,5.66,5.66l65.51-65.52,22.59,22.59-36.16,36.16a4,4,0,1,0,5.66,5.66L488,604.14l44,44a14.52,14.52,0,0,0,10.28,4.25,14.36,14.36,0,0,0,10.19-4.21L804.07,396.52a14.45,14.45,0,0,0-.06-20.46ZM629.14,225.45,612.88,457,381.36,473.23Zm-91.52,417-44-44,25.15-25.15a4,4,0,1,0-5.66-5.66L488,592.83,465.4,570.24,493,542.66a4,4,0,1,0-5.66-5.66l-27.58,27.58L435,539.79l31-31a4,4,0,0,0-5.66-5.66l-31,31-49.82-49.82a6.54,6.54,0,0,1-1.65-2.78l.48-.08,161.56-11.34.59,173.8h4.19A6.53,6.53,0,0,1,537.62,642.46Zm10.83-1.63-.58-171.27,66.59-4.68a6.87,6.87,0,0,0,6.34-6.34L625.47,392l171.27.59ZM799.82,388.75v-4.2L626,384l11.32-162.07a6.53,6.53,0,0,1,2.86,1.69L798.36,381.72a6.48,6.48,0,0,1,1.92,4.61A6.4,6.4,0,0,1,799.82,388.75Z" transform="translate(-331.63 -213.64)"/></svg>