<svg id="Gutschein-Lösungen" xmlns="http://www.w3.org/2000/svg" viewBox="0 0 458.44 458.44"><defs><style>.cls-1{fill:#494949;}</style></defs><title>gutscheinsystem</title><path class="cls-1" d="M529.45,397a4,4,0,0,0-5.66,0l-56.74,56.74a4,4,0,0,0,5.66,5.66l56.74-56.74A4,4,0,0,0,529.45,397Z" transform="translate(-345.95 -189.16)"/><path class="cls-1" d="M587.59,383.59a4,4,0,0,0-5.66,0l-92.51,92.51a4,4,0,0,0,5.66,5.66l92.51-92.51A4,4,0,0,0,587.59,383.59Z" transform="translate(-345.95 -189.16)"/><path class="cls-1" d="M574.19,441.73a4,4,0,0,0-5.66,0l-56.74,56.74a4,4,0,0,0,5.66,5.66l56.74-56.74A4,4,0,0,0,574.19,441.73Z" transform="translate(-345.95 -189.16)"/><path class="cls-1" d="M632.32,428.33a4,4,0,0,0-5.66,0l-92.51,92.51a4,4,0,0,0,5.66,5.66L632.32,434A4,4,0,0,0,632.32,428.33Z" transform="translate(-345.95 -189.16)"/><path class="cls-1" d="M802.4,338.63l-38.94-38.94a4,4,0,0,0-5.66,0,45.21,45.21,0,0,1-63.94-63.94,4,4,0,0,0,0-5.66l-38.94-38.94a6.84,6.84,0,0,0-9.67,0L348,488.46a6.83,6.83,0,0,0,0,9.67l38.94,38.94a4,4,0,0,0,5.66,0A45.21,45.21,0,1,1,456.49,601a4,4,0,0,0,0,5.66l38.94,38.94a6.84,6.84,0,0,0,9.67,0L802.4,348.3A6.84,6.84,0,0,0,802.4,338.63ZM500.26,639.12l-35.39-35.39a53.22,53.22,0,0,0-75-75l-35.39-35.39L560.28,287.44,706.11,433.27ZM711.77,427.61,565.94,281.78l84.15-84.15L685.48,233a53.22,53.22,0,0,0,75,75l35.39,35.39Z" transform="translate(-345.95 -189.16)"/></svg>