<svg id="Sonderlösungen" xmlns="http://www.w3.org/2000/svg" viewBox="0 0 354.82 429.86"><defs><style>.cls-1{fill:#969696;}</style></defs><title>komplettloesungen</title><path class="cls-1" d="M665.86,304.75a103.2,103.2,0,0,0-74.33-29.87c-57,.79-102.84,47.81-102.27,104.8a102.9,102.9,0,0,0,32.36,74.23,80.41,80.41,0,0,1,25,58.06v4.54h.07v69.24a15.36,15.36,0,0,0,12.51,15.07,34,34,0,0,0,67.56,0,15.36,15.36,0,0,0,12.51-15.07V516.52h.07V512a79.84,79.84,0,0,1,24.85-57.88,103.75,103.75,0,0,0,1.65-149.35Zm-111.14,240H631.3v20.19H554.72ZM593,623.09a26,26,0,0,1-25.68-22h51.36A26,26,0,0,1,593,623.09Zm30.95-30h-61.9a7.35,7.35,0,0,1-7.34-7.34V572.91H631.3v12.85A7.35,7.35,0,0,1,624,593.1Zm7.34-56.38H554.72V516.52H631.3Zm27.42-88.44a87.86,87.86,0,0,0-27.29,60.24H554.58a88.52,88.52,0,0,0-27.47-60.41,95,95,0,0,1-29.86-68.5,95.76,95.76,0,1,1,191.51-1A94.87,94.87,0,0,1,658.72,448.28Z" transform="translate(-414.23 -201.22)"/><path class="cls-1" d="M608.59,321.2a4,4,0,0,0,0,8,41.61,41.61,0,0,1,41.56,41.56,4,4,0,0,0,8,0A49.62,49.62,0,0,0,608.59,321.2Z" transform="translate(-414.23 -201.22)"/><path class="cls-1" d="M593,252.71a4,4,0,0,0,4-4V205.22a4,4,0,0,0-8,0v43.49A4,4,0,0,0,593,252.71Z" transform="translate(-414.23 -201.22)"/><path class="cls-1" d="M497.91,288.62a4,4,0,0,0,5.66-5.66l-30.75-30.75a4,4,0,1,0-5.66,5.66Z" transform="translate(-414.23 -201.22)"/><path class="cls-1" d="M465.72,377.27a4,4,0,0,0-4-4H418.23a4,4,0,0,0,0,8h43.49A4,4,0,0,0,465.72,377.27Z" transform="translate(-414.23 -201.22)"/><path class="cls-1" d="M496,466.71l-30.75,30.75a4,4,0,1,0,5.66,5.66l30.75-30.75a4,4,0,1,0-5.66-5.66Z" transform="translate(-414.23 -201.22)"/><path class="cls-1" d="M685.37,468.64a4,4,0,0,0-5.66,5.66L710.47,505a4,4,0,1,0,5.66-5.66Z" transform="translate(-414.23 -201.22)"/><path class="cls-1" d="M765.05,376H721.57a4,4,0,0,0,0,8h43.49a4,4,0,0,0,0-8Z" transform="translate(-414.23 -201.22)"/><path class="cls-1" d="M684.48,291.73a4,4,0,0,0,2.83-1.17l30.75-30.75a4,4,0,0,0-5.66-5.66L681.65,284.9a4,4,0,0,0,2.83,6.83Z" transform="translate(-414.23 -201.22)"/></svg>