<svg id="sichere_eingabe" data-name="sichere eingabe" xmlns="http://www.w3.org/2000/svg" viewBox="0 0 584.9 394.05"><defs><style>.cls-1{fill:#494949;}</style></defs><title>produkte-sicherheit_neu2</title><path class="cls-1" d="M414.7,256.56a7.48,7.48,0,1,1,7.49,7.48,7.49,7.49,0,0,1-7.49-7.48m-8,0a15.48,15.48,0,1,0,15.49-15.48,15.5,15.5,0,0,0-15.49,15.48m-32.14,0a7.48,7.48,0,1,1,7.48,7.48,7.49,7.49,0,0,1-7.48-7.48m-8,0a15.48,15.48,0,1,0,15.48-15.48,15.5,15.5,0,0,0-15.48,15.48m-32.13,0a7.48,7.48,0,1,1,7.48,7.48,7.49,7.49,0,0,1-7.48-7.48m-8,0a15.48,15.48,0,1,0,15.48-15.48,15.5,15.5,0,0,0-15.48,15.48m119.3,101.63a11.48,11.48,0,1,0-11.48,11.49,11.48,11.48,0,0,0,11.48-11.49m38,0a11.48,11.48,0,1,0-11.48,11.49,11.48,11.48,0,0,0,11.48-11.49m38,0a11.48,11.48,0,1,0-11.49,11.49,11.48,11.48,0,0,0,11.49-11.49m38,0a11.48,11.48,0,1,0-11.48,11.49,11.48,11.48,0,0,0,11.48-11.49m38,0a11.48,11.48,0,1,0-11.48,11.49,11.48,11.48,0,0,0,11.48-11.49m137.29,18.27a1.67,1.67,0,0,1-1.67,1.67H410.77a1.67,1.67,0,0,1-1.67-1.67V339.92a1.67,1.67,0,0,1,1.67-1.67H733.46a1.67,1.67,0,0,1,1.67,1.67Zm8,0V339.92a9.68,9.68,0,0,0-9.67-9.67H410.77a9.68,9.68,0,0,0-9.67,9.67v36.55a9.68,9.68,0,0,0,9.67,9.67H733.46a9.68,9.68,0,0,0,9.67-9.67m-297.39,73.6a11.48,11.48,0,1,0-11.48,11.48,11.48,11.48,0,0,0,11.48-11.48m38,0a11.48,11.48,0,1,0-11.48,11.48,11.48,11.48,0,0,0,11.48-11.48m38,0a11.48,11.48,0,1,0-11.49,11.48,11.48,11.48,0,0,0,11.49-11.48m38,0a11.48,11.48,0,1,0-11.48,11.48,11.48,11.48,0,0,0,11.48-11.48m175.31,18.27a1.67,1.67,0,0,1-1.67,1.67H410.77a1.67,1.67,0,0,1-1.67-1.67V431.8a1.67,1.67,0,0,1,1.67-1.67H733.46a1.67,1.67,0,0,1,1.67,1.67Zm8,0V431.8a9.68,9.68,0,0,0-9.67-9.67H410.77a9.68,9.68,0,0,0-9.67,9.67v36.55a9.68,9.68,0,0,0,9.67,9.67H733.46a9.68,9.68,0,0,0,9.67-9.67m-297.39,73.6a11.48,11.48,0,1,0-11.48,11.48,11.48,11.48,0,0,0,11.48-11.48m38,0a11.48,11.48,0,1,0-11.48,11.48,11.48,11.48,0,0,0,11.48-11.48m38,0a11.48,11.48,0,1,0-11.49,11.48,11.48,11.48,0,0,0,11.49-11.48m38,0a11.48,11.48,0,1,0-11.48,11.48,11.48,11.48,0,0,0,11.48-11.48m38,0a11.48,11.48,0,1,0-11.48,11.48,11.48,11.48,0,0,0,11.48-11.48m137.29,18.27a1.67,1.67,0,0,1-1.67,1.67H410.77a1.67,1.67,0,0,1-1.67-1.67V523.68a1.67,1.67,0,0,1,1.67-1.67H733.46a1.67,1.67,0,0,1,1.67,1.67Zm8,0V523.68a9.68,9.68,0,0,0-9.67-9.67H410.77a9.68,9.68,0,0,0-9.67,9.67v36.55a9.68,9.68,0,0,0,9.67,9.67H733.46a9.68,9.68,0,0,0,9.67-9.67M882.89,459a51,51,0,0,1-15.05,36.28A46.42,46.42,0,0,1,834.3,508.7a50.1,50.1,0,0,1-38.16-18.81l86.75-88.23Zm-4.11-64.57-87.2,88.69a47.31,47.31,0,0,1-6-23.08V398.35A3.51,3.51,0,0,1,787.9,395L833.7,379a1.58,1.58,0,0,1,1,0Zm-48.56-22.71-45,15.78a11.52,11.52,0,0,0-7.7,10.86V460c0,29.35,23.29,53.89,52.67,56.44v85.41a7.4,7.4,0,0,1-7.4,7.4H321.4a7.4,7.4,0,0,1-7.4-7.4V289.72H830.22Zm0-90H314V238.63a7.4,7.4,0,0,1,7.4-7.4H822.83a7.4,7.4,0,0,1,7.4,7.4ZM890.89,459V398.35a11.52,11.52,0,0,0-7.7-10.86l-45-15.78V238.63a15.41,15.41,0,0,0-15.4-15.4H321.4a15.41,15.41,0,0,0-15.4,15.4V601.88a15.41,15.41,0,0,0,15.4,15.4H822.83a15.41,15.41,0,0,0,15.4-15.4V516.62A54.27,54.27,0,0,0,873.44,501a59.08,59.08,0,0,0,17.45-42" transform="translate(-306 -223.23)"/></svg>