<?xml version="1.0" encoding="utf-8"?>
<!-- Generator: Adobe Illustrator 21.1.0, SVG Export Plug-In . SVG Version: 6.00 Build 0)  -->
<svg version="1.1" id="sichere_eingabe" xmlns="http://www.w3.org/2000/svg" xmlns:xlink="http://www.w3.org/1999/xlink" x="0px"
	 y="0px" viewBox="0 0 1183.3 836.8" style="enable-background:new 0 0 1183.3 836.8;" xml:space="preserve">
<style type="text/css">
	.st0{fill:#0F0F0E;}
</style>
<g>
	<path class="st0" d="M833.9,615.4H332.4c-8.5,0-15.4-6.9-15.4-15.4V236.7c0-8.5,6.9-15.4,15.4-15.4h501.4c8.5,0,15.4,6.9,15.4,15.4
		v136.6h-8V236.7c0-4.1-3.3-7.4-7.4-7.4H332.4c-4.1,0-7.4,3.3-7.4,7.4V600c0,4.1,3.3,7.4,7.4,7.4h501.4c4.1,0,7.4-3.3,7.4-7.4v-89.2
		h8V600C849.3,608.5,842.4,615.4,833.9,615.4z"/>
</g>
<g>
	<rect x="321" y="279.8" class="st0" width="524.2" height="8"/>
</g>
<g>
	<path class="st0" d="M353,270.2c-8.5,0-15.5-6.9-15.5-15.5c0-8.5,6.9-15.5,15.5-15.5s15.5,6.9,15.5,15.5
		C368.4,263.2,361.5,270.2,353,270.2z M353,247.2c-4.1,0-7.5,3.4-7.5,7.5c0,4.1,3.4,7.5,7.5,7.5c4.1,0,7.5-3.4,7.5-7.5
		C360.4,250.6,357.1,247.2,353,247.2z"/>
</g>
<g>
	<path class="st0" d="M393.1,270.2c-8.5,0-15.5-6.9-15.5-15.5c0-8.5,6.9-15.5,15.5-15.5s15.5,6.9,15.5,15.5
		C408.6,263.2,401.6,270.2,393.1,270.2z M393.1,247.2c-4.1,0-7.5,3.4-7.5,7.5c0,4.1,3.4,7.5,7.5,7.5c4.1,0,7.5-3.4,7.5-7.5
		C400.6,250.6,397.2,247.2,393.1,247.2z"/>
</g>
<g>
	<path class="st0" d="M433.2,270.2c-8.5,0-15.5-6.9-15.5-15.5c0-8.5,6.9-15.5,15.5-15.5s15.5,6.9,15.5,15.5
		C448.7,263.2,441.8,270.2,433.2,270.2z M433.2,247.2c-4.1,0-7.5,3.4-7.5,7.5c0,4.1,3.4,7.5,7.5,7.5c4.1,0,7.5-3.4,7.5-7.5
		C440.7,250.6,437.4,247.2,433.2,247.2z"/>
</g>
<circle class="st0" cx="445.3" cy="356.3" r="11.5"/>
<circle class="st0" cx="483.3" cy="356.3" r="11.5"/>
<circle class="st0" cx="521.3" cy="356.3" r="11.5"/>
<circle class="st0" cx="559.4" cy="356.3" r="11.5"/>
<circle class="st0" cx="445.3" cy="448.2" r="11.5"/>
<circle class="st0" cx="483.3" cy="448.2" r="11.5"/>
<circle class="st0" cx="521.3" cy="448.2" r="11.5"/>
<circle class="st0" cx="559.4" cy="448.2" r="11.5"/>
<circle class="st0" cx="597.4" cy="356.3" r="11.5"/>
<circle class="st0" cx="445.3" cy="540.1" r="11.5"/>
<circle class="st0" cx="483.3" cy="540.1" r="11.5"/>
<circle class="st0" cx="521.3" cy="540.1" r="11.5"/>
<circle class="st0" cx="559.4" cy="540.1" r="11.5"/>
<circle class="st0" cx="597.4" cy="540.1" r="11.5"/>
<g>
	<path class="st0" d="M744.5,384.3H421.8c-5.3,0-9.7-4.3-9.7-9.7V338c0-5.3,4.3-9.7,9.7-9.7h322.7c5.3,0,9.7,4.3,9.7,9.7v36.5
		C754.2,379.9,749.8,384.3,744.5,384.3z M421.8,336.4c-0.9,0-1.7,0.7-1.7,1.7v36.5c0,0.9,0.7,1.7,1.7,1.7h322.7
		c0.9,0,1.7-0.7,1.7-1.7V338c0-0.9-0.7-1.7-1.7-1.7H421.8z"/>
</g>
<g>
	<path class="st0" d="M744.5,476.1H421.8c-5.3,0-9.7-4.3-9.7-9.7v-36.5c0-5.3,4.3-9.7,9.7-9.7h322.7c5.3,0,9.7,4.3,9.7,9.7v36.5
		C754.2,471.8,749.8,476.1,744.5,476.1z M421.8,428.2c-0.9,0-1.7,0.7-1.7,1.7v36.5c0,0.9,0.7,1.7,1.7,1.7h322.7
		c0.9,0,1.7-0.7,1.7-1.7v-36.5c0-0.9-0.7-1.7-1.7-1.7H421.8z"/>
</g>
<g>
	<path class="st0" d="M744.5,568H421.8c-5.3,0-9.7-4.3-9.7-9.7v-36.5c0-5.3,4.3-9.7,9.7-9.7h322.7c5.3,0,9.7,4.3,9.7,9.7v36.5
		C754.2,563.7,749.8,568,744.5,568z M421.8,520.1c-0.9,0-1.7,0.7-1.7,1.7v36.5c0,0.9,0.7,1.7,1.7,1.7h322.7c0.9,0,1.7-0.7,1.7-1.7
		v-36.5c0-0.9-0.7-1.7-1.7-1.7H421.8z"/>
</g>
<g>
	<path class="st0" d="M846.2,514.8c-0.4,0-0.7,0-1.1,0c-31.2-0.6-56.6-26-56.6-56.7v-61.7c0-4.9,3.1-9.2,7.7-10.9l45.8-16.1
		c2-0.7,4.3-0.7,6.3,0l45.8,16.1c4.6,1.6,7.7,6,7.7,10.9v60.6c0,15.8-6.4,31.1-17.4,42C874.1,509.3,860.6,514.8,846.2,514.8z
		 M845.3,377c-0.2,0-0.4,0-0.5,0.1l-45.8,16.1c-1.4,0.5-2.3,1.8-2.3,3.3v61.7c0,26.3,21.9,48.1,48.7,48.7l0,0
		c12.5,0.2,24.5-4.5,33.5-13.4c9.6-9.4,15.1-22.6,15.1-36.3v-60.6c0-1.5-0.9-2.8-2.3-3.3l-45.8-16.1C845.6,377,845.4,377,845.3,377z
		"/>
</g>
<g>
	
		<rect x="781.8" y="435.5" transform="matrix(0.7012 -0.713 0.713 0.7012 -59.5386 736.8823)" class="st0" width="135.1" height="8"/>
</g>
</svg>
