<svg id="sichere_eingabe" data-name="sichere eingabe" xmlns="http://www.w3.org/2000/svg" viewBox="0 0 584.89 394.05"><defs><style>.cls-1{fill:none;stroke:#494949;stroke-miterlimit:10;stroke-width:8px;}.cls-2{fill:#494949;}</style></defs><title>sicherheit</title><path class="cls-1" d="M845.26,510.83V600a11.4,11.4,0,0,1-11.4,11.4H332.43A11.4,11.4,0,0,1,321,600V236.75a11.4,11.4,0,0,1,11.4-11.4H833.86a11.4,11.4,0,0,1,11.4,11.4V373.32" transform="translate(-317.04 -221.35)"/><line class="cls-1" x1="4" y1="62.49" x2="528.22" y2="62.49"/><circle class="cls-1" cx="35.92" cy="33.33" r="11.48"/><circle class="cls-1" cx="76.05" cy="33.33" r="11.48"/><circle class="cls-1" cx="116.19" cy="33.33" r="11.48"/><circle class="cls-2" cx="128.25" cy="134.96" r="11.48"/><circle class="cls-2" cx="166.28" cy="134.96" r="11.48"/><circle class="cls-2" cx="204.3" cy="134.96" r="11.48"/><circle class="cls-2" cx="242.33" cy="134.96" r="11.48"/><circle class="cls-2" cx="128.25" cy="226.84" r="11.48"/><circle class="cls-2" cx="166.28" cy="226.84" r="11.48"/><circle class="cls-2" cx="204.3" cy="226.84" r="11.48"/><circle class="cls-2" cx="242.33" cy="226.84" r="11.48"/><circle class="cls-2" cx="280.36" cy="134.96" r="11.48"/><circle class="cls-2" cx="128.25" cy="318.72" r="11.48"/><circle class="cls-2" cx="166.28" cy="318.72" r="11.48"/><circle class="cls-2" cx="204.3" cy="318.72" r="11.48"/><circle class="cls-2" cx="242.33" cy="318.72" r="11.48"/><circle class="cls-2" cx="280.36" cy="318.72" r="11.48"/><rect class="cls-1" x="99.1" y="111.02" width="334.03" height="47.89" rx="5.67" ry="5.67"/><rect class="cls-1" x="99.1" y="202.9" width="334.03" height="47.89" rx="5.67" ry="5.67"/><rect class="cls-1" x="99.1" y="294.77" width="334.03" height="47.89" rx="5.67" ry="5.67"/><path class="cls-1" d="M845.26,510.82c29.53.56,52.67-24.17,52.67-53.7V396.47a7.5,7.5,0,0,0-5-7.08l-45.8-16.07a5.58,5.58,0,0,0-3.69,0l-45.8,16.07a7.5,7.5,0,0,0-5,7.08v61.68C792.59,486.9,816.64,510.27,845.26,510.82Z" transform="translate(-317.04 -221.35)"/><line class="cls-1" x1="484.91" y1="266.28" x2="579.62" y2="169.95"/></svg>