<svg id="Webterminal" xmlns="http://www.w3.org/2000/svg" viewBox="0 0 585.97 384.94"><defs><style>.cls-1{fill:#969696;}</style></defs><title>reporting</title><path class="cls-1" d="M484.9,419.94H458.82a6.84,6.84,0,0,0-6.83,6.83v48a6.84,6.84,0,0,0,6.83,6.83H484.9a6.84,6.84,0,0,0,6.83-6.83v-48A6.84,6.84,0,0,0,484.9,419.94Zm-1.17,53.66H460V427.94h23.75Z" transform="translate(-293.09 -227.38)"/><path class="cls-1" d="M542,394.37H515.93a6.84,6.84,0,0,0-6.83,6.83v73.56a6.84,6.84,0,0,0,6.83,6.83H542a6.84,6.84,0,0,0,6.83-6.83V401.21A6.84,6.84,0,0,0,542,394.37Zm-1.17,79.23H517.09V402.37h23.75Z" transform="translate(-293.09 -227.38)"/><path class="cls-1" d="M599.12,369H573a6.84,6.84,0,0,0-6.83,6.83v99A6.84,6.84,0,0,0,573,481.6h26.08a6.84,6.84,0,0,0,6.83-6.83v-99A6.84,6.84,0,0,0,599.12,369ZM598,473.6H574.2V377H598Z" transform="translate(-293.09 -227.38)"/><path class="cls-1" d="M656.23,343.39H630.14a6.84,6.84,0,0,0-6.83,6.83V474.77a6.84,6.84,0,0,0,6.83,6.83h26.08a6.84,6.84,0,0,0,6.83-6.83V350.23A6.84,6.84,0,0,0,656.23,343.39ZM655.06,473.6H631.31V351.39h23.75Z" transform="translate(-293.09 -227.38)"/><path class="cls-1" d="M713.33,317.83H687.25a6.84,6.84,0,0,0-6.83,6.83v150.1a6.84,6.84,0,0,0,6.83,6.83h26.08a6.84,6.84,0,0,0,6.83-6.83V324.66A6.84,6.84,0,0,0,713.33,317.83ZM712.17,473.6H688.42V325.83h23.75Z" transform="translate(-293.09 -227.38)"/><path class="cls-1" d="M878.85,576.12a10.1,10.1,0,0,0-10.06-9.92H820.12V254.06a26.71,26.71,0,0,0-26.68-26.68H378.71A26.71,26.71,0,0,0,352,254.06V566.2H303.36a10.1,10.1,0,0,0-10.06,9.92l-.21,15.6a10,10,0,0,0,8.38,10.06l50.76,8.56a142.06,142.06,0,0,0,23.56,2H796.36a142.07,142.07,0,0,0,23.56-2l50.76-8.56a10,10,0,0,0,8.38-10.05ZM360,254.06a18.7,18.7,0,0,1,18.68-18.68H793.44a18.7,18.7,0,0,1,18.68,18.68V566.2H360ZM869.34,593.89l-50.76,8.56a134,134,0,0,1-22.23,1.87H375.79a134,134,0,0,1-22.23-1.87l-50.76-8.56a2,2,0,0,1-1.72-2.06l.21-15.6a2.07,2.07,0,0,1,2.06-2H868.79a2.07,2.07,0,0,1,2.06,2l.21,15.6A2,2,0,0,1,869.34,593.89Z" transform="translate(-293.09 -227.38)"/><path class="cls-1" d="M777.14,258.65H395a9.68,9.68,0,0,0-9.67,9.67V531.1a9.68,9.68,0,0,0,9.67,9.67H777.14a9.68,9.68,0,0,0,9.67-9.67V268.32A9.68,9.68,0,0,0,777.14,258.65Zm1.67,272.45a1.67,1.67,0,0,1-1.67,1.67H395a1.67,1.67,0,0,1-1.67-1.67V268.32a1.67,1.67,0,0,1,1.67-1.67H777.14a1.67,1.67,0,0,1,1.67,1.67Z" transform="translate(-293.09 -227.38)"/><path class="cls-1" d="M606.48,585.26h-40.8a4,4,0,0,0,0,8h40.8a4,4,0,0,0,0-8Z" transform="translate(-293.09 -227.38)"/></svg>