<svg id="E-Commerce" xmlns="http://www.w3.org/2000/svg" viewBox="0 0 585.97 384.94"><defs><style>.cls-1{fill:#969696;}</style></defs><title>shop-integration</title><path class="cls-1" d="M910.28,595.82a10.1,10.1,0,0,0-10.06-9.92H851.55V273.75a26.71,26.71,0,0,0-26.68-26.68H410.14a26.71,26.71,0,0,0-26.68,26.68V585.89H334.79a10.1,10.1,0,0,0-10.06,9.92l-.21,15.6a10,10,0,0,0,8.38,10.06L383.66,630a142.07,142.07,0,0,0,23.56,2H827.79a142,142,0,0,0,23.56-2l50.76-8.56a10,10,0,0,0,8.38-10.05ZM391.46,273.75a18.7,18.7,0,0,1,18.68-18.68H824.87a18.7,18.7,0,0,1,18.68,18.68V585.89H391.46ZM900.77,613.58,850,622.15A134,134,0,0,1,827.79,624H407.22A134,134,0,0,1,385,622.15l-50.76-8.56a2,2,0,0,1-1.71-2.06l.21-15.6a2.07,2.07,0,0,1,2.06-2H900.22a2.07,2.07,0,0,1,2.06,2l.21,15.6A2,2,0,0,1,900.77,613.58Z" transform="translate(-324.52 -247.08)"/><path class="cls-1" d="M808.57,278.35H426.44a9.68,9.68,0,0,0-9.67,9.67V550.8a9.68,9.68,0,0,0,9.67,9.67H808.57a9.68,9.68,0,0,0,9.67-9.67V288A9.68,9.68,0,0,0,808.57,278.35Zm1.67,272.45a1.67,1.67,0,0,1-1.67,1.67H426.44a1.67,1.67,0,0,1-1.67-1.67V288a1.67,1.67,0,0,1,1.67-1.67H808.57a1.67,1.67,0,0,1,1.67,1.67Z" transform="translate(-324.52 -247.08)"/><path class="cls-1" d="M637.9,605H597.1a4,4,0,0,0,0,8h40.8a4,4,0,0,0,0-8Z" transform="translate(-324.52 -247.08)"/><path class="cls-1" d="M738.31,336.8H712.93a9.84,9.84,0,0,0-9.37,7l-7.91,26.62H543.34a7,7,0,0,0-6.75,9l20.19,68a7.09,7.09,0,0,0,6.75,5H671.27L665.16,473a1.79,1.79,0,0,1-1.71,1.27H566.84a4,4,0,0,0,0,8h96.61a9.84,9.84,0,0,0,9.38-7l38.39-129.24a1.79,1.79,0,0,1,1.71-1.27h25.38a4,4,0,0,0,0-8Zm-52.6,67.08H658.4V378.42h34.87Zm-70.6,8v32.6H584.2v-32.6Zm-30.91-8V378.42h30.91v25.46Zm38.91,8H650.4v32.6H623.11Zm0-8V378.42H650.4v25.46ZM576.2,378.42v25.46h-24l-7.56-25.46Zm-21.64,33.46H576.2v32.6h-12Zm103.84,32.6v-32.6h24.93l-9.68,32.6Z" transform="translate(-324.52 -247.08)"/><path class="cls-1" d="M572,490.71a14.55,14.55,0,1,0,14.55,14.55A14.57,14.57,0,0,0,572,490.71Zm0,21.11a6.55,6.55,0,1,1,6.55-6.55A6.56,6.56,0,0,1,572,511.82Z" transform="translate(-324.52 -247.08)"/><path class="cls-1" d="M663.13,490.71a14.55,14.55,0,1,0,14.55,14.55A14.57,14.57,0,0,0,663.13,490.71Zm0,21.11a6.55,6.55,0,1,1,6.55-6.55A6.56,6.56,0,0,1,663.13,511.82Z" transform="translate(-324.52 -247.08)"/></svg>