<svg id="Basic" xmlns="http://www.w3.org/2000/svg" viewBox="0 0 245.13 398.58"><defs><style>.cls-1{fill:none;stroke:#969696;stroke-miterlimit:10;stroke-width:8px;}</style></defs><title>sicherheit</title><path class="cls-1" d="M502.59,402S550.23,394,621.16,394,739.72,402,739.72,402V621.74s-47.64,7.91-118.57,7.91-118.57-7.91-118.57-7.91Z" transform="translate(-498.59 -235.07)"/><path class="cls-1" d="M669.74,396.17v-73.4a48.59,48.59,0,1,0-97.18,0v73.4" transform="translate(-498.59 -235.07)"/><path class="cls-1" d="M538.78,396.17V321.44a82.38,82.38,0,1,1,164.75,0v74.73" transform="translate(-498.59 -235.07)"/><path class="cls-1" d="M648.87,489.11a27.72,27.72,0,1,0-42.5,23.44l-12.93,60.27h55.43L635,513.11A27.7,27.7,0,0,0,648.87,489.11Z" transform="translate(-498.59 -235.07)"/></svg>