<svg id="Basic" xmlns="http://www.w3.org/2000/svg" viewBox="0 0 245.13 398.58"><defs><style>.cls-1{fill:#494949;}</style></defs><title>sicherheit</title><path class="cls-1" d="M629.62,483.35,643,541H597.56L610,482.88l-2.36-1.49a23.72,23.72,0,1,1,24.5.48ZM653.08,549l-14.36-61.87a31.71,31.71,0,1,0-37.64-.63L587.66,549Zm81.81,41.48c-12,1.74-55.34,7.35-114.57,7.35s-102.56-5.61-114.57-7.35V377.61c12-1.74,55.34-7.35,114.57-7.35s102.56,5.61,114.57,7.35ZM575.74,295a44.59,44.59,0,0,1,89.18,0v68.32c-13.5-.64-28.45-1.05-44.59-1.05s-31.09.42-44.59,1.05Zm123,70.55c-7.69-.66-16.33-1.29-25.79-1.82V295a52.59,52.59,0,0,0-105.18,0v68.73c-9.46.53-18.1,1.16-25.79,1.82V293.66a78.38,78.38,0,0,1,156.75,0Zm44.19,231.8V370.78l-3.35-.55c-.24,0-12.24-2-32.84-4v-72.6a86.38,86.38,0,0,0-172.75,0v72.6c-20.61,2-32.61,3.92-32.85,4l-3.35.55V597.34l3.35.56c.48.08,48.78,8,119.22,8s118.74-7.89,119.22-8Z" transform="translate(-497.76 -207.28)"/></svg>