<svg id="einwählen" xmlns="http://www.w3.org/2000/svg" viewBox="0 0 343.57 391.34"><defs><style>.cls-1{fill:#fff;}</style></defs><title>telefon</title><path class="cls-1" d="M766.83,526.12A276,276,0,0,0,731.5,490c-15.27-12.8-28-19.73-37.8-20.62-20.11-1.83-38.42,20.13-53.14,37.79l-2.72,3.26a7.33,7.33,0,0,1-10.75.54c-11.14-10.9-32.63-32.41-51.43-54.1C557.22,435.56,544.76,409,539,395.05a7.31,7.31,0,0,1,2.92-9c1.86-1.16,3.81-2.35,5.79-3.56,19.39-11.85,43.52-26.61,45.31-47.11.77-8.94-2.22-25.58-20.77-54.1C561,263.93,546.36,246.58,537.5,240a15,15,0,0,0-11.07-2.84c-29.62,4.07-75.65,47.54-81.68,61.75l-.06.14A84.94,84.94,0,0,0,440,344c2.24,14.46,7.95,30.79,18,51.39C482,453.1,570.73,561.84,621.76,596.26c29,22.22,51,32.1,73.25,32.1a82.21,82.21,0,0,0,16.82-1.8c7.87-1.51,23.85-12.5,38.89-26.73,10.48-9.91,28.52-29.11,31.64-46.34l0-.24C782.94,548.66,777.7,539.54,766.83,526.12Zm-239.3-281a7.13,7.13,0,0,1,5.21,1.33c7,5.22,20.55,20.37,32.8,39.2C578.84,306.08,586,324,585,334.66c-.63,7.18-5.21,13.82-11.66,19.92L505.46,253.9C513.41,249.27,521.08,246,527.52,245.08ZM710.3,618.7h-.07c-26.4,5.5-49.08-2.33-83.7-28.88l-.2-.14c-50.13-33.74-137.42-140.78-161-197.46l-.1-.21c-19.35-39.8-22.9-64.21-13.07-90.06,3.54-8.19,25.07-29.67,46.52-43.83l68.6,101.69c-7.36,5.79-16,11.05-23.74,15.81-2,1.23-4,2.43-5.85,3.6a15.28,15.28,0,0,0-6.08,18.89c6,14.39,18.84,41.83,38,64,19,21.91,40.66,43.6,51.88,54.58A15.33,15.33,0,0,0,644,515.53l2.74-3.28c5.5-6.6,11.55-13.86,17.87-20l92.52,89.5C740.92,600.26,718.35,617.18,710.3,618.7Zm51.9-43.19-91.69-88.69c7.4-6.14,15-10.18,22.46-9.51,11.33,1,30.26,14,50.64,34.85,19.67,20.07,30.4,36.66,30.81,40.19C773.08,559.36,768.44,567.45,762.2,575.51Z" transform="translate(-438.87 -237.01)"/></svg>